<?xml version="1.0" encoding="utf-8"?>
<svg version="1.1" xmlns:xlink="http://www.w3.org/1999/xlink" width="30px" height="30px" xmlns="http://www.w3.org/2000/svg">
  <g transform="matrix(1 0 0 1 -1603 -10 )">
    <path d="M 30 15  C 30 6.7157287525381  23.2842712474619 0  15 0  C 6.7157287525381 0  0 6.7157287525381  0 15  C 0 23.2842712474619  6.7157287525381 30  15 30  C 23.2842712474619 30  30 23.2842712474619  30 15  Z M 23.750009765625 24  L 6.24999023437499 24  C 6.24999023437499 19.5425030455748  10.1675030455747 15.624990234375  15 15.624990234375  C 12.2385708575262 15.624990234375  9.99999023446094 13.3864096113097  9.99999023446094 10.62498046875  C 9.99999023446094 7.86355132619025  12.2385708575262 5.62497070312499  15.0000000000859 5.62497070312499  C 17.7614291426455 5.62497070312499  20.0000097657107 7.86355132619025  20.0000097657107 10.62498046875  C 19.9999935854746 13.3864274670364  17.7614177014589 15.6249902344224  15 15.624990234375  C 19.8324969544253 15.624990234375  23.750009765625 19.5425030455748  23.750009765625 24.375  C 23.750009765625 24.375  23.750009765625 24.375  23.750009765625 24  Z " fill-rule="nonzero" fill="#00559e" stroke="none" transform="matrix(1 0 0 1 1603 10 )" />
  </g>
</svg>