<?xml version="1.0" encoding="utf-8"?>
<svg version="1.1" xmlns:xlink="http://www.w3.org/1999/xlink" width="10px" height="5px" xmlns="http://www.w3.org/2000/svg">
  <g transform="matrix(1 0 0 1 -1688 -23 )">
    <path d="M 9.89979959919833 0.515463917525778  C 9.96659986639952 0.572737686139746  10 0.638602520045822  10 0.713058419243993  C 10 0.787514318442149  9.96659986639952 0.853379152348225  9.89979959919833 0.910652920962193  L 5.23046092184381 4.91408934707905  C 5.16366065464263 4.97136311569301  5.0868403473612 5  5 5  C 4.9131596526388 5  4.83633934535737 4.97136311569301  4.76953907815619 4.91408934707905  L 0.100200400801668 0.910652920962193  C 0.0334001336004803 0.853379152348225  0 0.787514318442149  0 0.713058419243993  C 0 0.638602520045822  0.0334001336004803 0.572737686139746  0.100200400801668 0.515463917525778  L 0.601202404809555 0.0859106529209583  C 0.668002672010743 0.0286368843069909  0.744822979291939 0  0.83166332665337 0  C 0.918503674014573 0  0.995323981295996 0.0286368843069909  1.06212424849718 0.0859106529209583  L 5 3.46219931271477  L 8.93787575150282 0.0859106529209583  C 9.004676018704 0.0286368843069909  9.08149632598543 0  9.16833667334663 0  C 9.25517702070806 0  9.33199732798926 0.0286368843069909  9.39879759519044 0.0859106529209583  L 9.89979959919833 0.515463917525778  Z " fill-rule="nonzero" fill="#ffffff" stroke="none" transform="matrix(1 0 0 1 1688 23 )" />
  </g>
</svg>