<?xml version="1.0" encoding="utf-8"?>
<svg version="1.1" xmlns:xlink="http://www.w3.org/1999/xlink" width="18px" height="18px" xmlns="http://www.w3.org/2000/svg">
  <g transform="matrix(1 0 0 1 -1742 -16 )">
    <path d="M 9 17.1964285714286  C 9.11538461538476 17.1964285714286  9.17307692307668 17.1428571428571  9.17307692307668 17.0357142857143  C 9.17307692307668 16.9285714285714  9.11538461538476 16.875  9 16.875  C 8.57451923076928 16.875  8.20853365384642 16.7327008928571  7.90204326923072 16.4481026785714  C 7.59555288461524 16.1635044642857  7.44230769230785 15.8236607142857  7.44230769230785 15.4285714285714  C 7.44230769230785 15.3214285714286  7.38461538461524 15.2678571428571  7.26923076923072 15.2678571428571  C 7.15384615384642 15.2678571428571  7.09615384615381 15.3214285714286  7.09615384615381 15.4285714285714  C 7.09615384615381 15.9174107142857  7.28185096153834 16.3342633928571  7.65324519230785 16.6791294642857  C 8.02463942307713 17.0239955357143  8.47355769230785 17.1964285714286  9 17.1964285714286  Z M 17.015625 13.2589285714286  C 17.3112980769231 13.5669642857143  17.6394230769229 13.8616071428571  18 14.1428571428571  C 18 14.4910714285714  17.8629807692307 14.7924107142857  17.5889423076922 15.046875  C 17.3149038461536 15.3013392857143  16.9903846153848 15.4285714285714  16.6153846153848 15.4285714285714  L 11.7692307692307 15.4285714285714  C 11.7692307692307 16.1383928571429  11.4987980769233 16.7444196428571  10.9579326923078 17.2466517857143  C 10.4170673076922 17.7488839285714  9.76442307692287 18  9 18  C 8.23557692307713 18  7.58293269230785 17.7488839285714  7.04206730769215 17.2466517857143  C 6.50120192307668 16.7444196428571  6.23076923076928 16.1383928571429  6.23076923076928 15.4285714285714  L 1.38461538461524 15.4285714285714  C 1.00961538461524 15.4285714285714  0.685096153846416 15.3013392857143  0.41105769230785 15.046875  C 0.137019230769283 14.7924107142857  0 14.4910714285714  0 14.1428571428571  C 0.360576923077133 13.8616071428571  0.688701923076906 13.5669642857143  0.984375 13.2589285714286  C 1.28004807692309 12.9508928571429  1.58653846153834 12.55078125  1.90384615384619 12.05859375  C 2.22115384615381 11.56640625  2.48978365384619 11.0357142857143  2.70973557692332 10.4665178571429  C 2.92968749999977 9.89732142857143  3.10997596153857 9.20758928571429  3.25060096153857 8.39732142857142  C 3.39122596153857 7.58705357142857  3.46153846153857 6.71651785714285  3.46153846153857 5.78571428571428  C 3.46153846153857 4.76785714285714  3.88341346153857 3.82198660714286  4.72716346153857 2.94810267857142  C 5.57091346153857 2.07421875  6.67788461538476 1.54352678571428  8.04807692307668 1.35602678571428  C 7.99038461538476 1.22879464285715  7.96153846153857 1.09821428571428  7.96153846153857 0.964285714285715  C 7.96153846153857 0.696428571428569  8.06249999999977 0.46875  8.26442307692332 0.28125  C 8.46634615384619 0.09375  8.71153846153834 0  9 0  C 9.28846153846166 0  9.53365384615381 0.09375  9.73557692307668 0.28125  C 9.93750000000023 0.46875  10.0384615384614 0.696428571428569  10.0384615384614 0.964285714285715  C 10.0384615384614 1.09821428571428  10.0096153846152 1.22879464285715  9.95192307692332 1.35602678571428  C 11.3221153846152 1.54352678571428  12.4290865384614 2.07421875  13.2728365384614 2.94810267857142  C 14.1165865384614 3.82198660714286  14.5384615384614 4.76785714285714  14.5384615384614 5.78571428571428  C 14.5384615384614 6.71651785714285  14.6087740384614 7.58705357142857  14.7493990384614 8.39732142857142  C 14.8900240384614 9.20758928571429  15.0703125000002 9.89732142857143  15.2902644230767 10.4665178571429  C 15.5102163461538 11.0357142857143  15.7788461538462 11.56640625  16.0961538461538 12.05859375  C 16.4134615384617 12.55078125  16.7199519230769 12.9508928571429  17.015625 13.2589285714286  Z " fill-rule="nonzero" fill="#ffffff" stroke="none" transform="matrix(1 0 0 1 1742 16 )" />
  </g>
</svg>