<?xml version="1.0" encoding="utf-8"?>
<svg version="1.1" xmlns:xlink="http://www.w3.org/1999/xlink" width="20px" height="18px" xmlns="http://www.w3.org/2000/svg">
  <g transform="matrix(1 0 0 1 -1800 -16 )">
    <path d="M 17.1330117160578 10.2837100545596  C 17.1412818745691 10.3024162120031  17.1454169538251 10.3304754481684  17.1454169538251 10.3678877630553  L 17.1454169538251 17.1021044427124  C 17.1454169538251 17.3452844894778  17.066850447967 17.5557287607171  16.909717436251 17.7334372564303  C 16.7525844245347 17.9111457521434  16.5665058580289 18  16.3514817367334 18  L 11.5878704341833 18  L 11.5878704341833 12.6126266562744  L 8.41212956581671 12.6126266562744  L 8.41212956581671 18  L 3.64851826326662 18  C 3.4334941419711 18  3.24741557546531 17.9111457521434  3.09028256374904 17.7334372564303  C 2.933149552033 17.5557287607171  2.85458304617487 17.3452844894778  2.85458304617487 17.1021044427124  L 2.85458304617487 10.3678877630553  C 2.85458304617487 10.3585346843336  2.85665058580298 10.344505066251  2.86078566505853 10.3257989088075  C 2.8649207443143 10.307092751364  2.86698828394219 10.2930631332814  2.86698828394219 10.2837100545596  L 10 3.63367108339829  L 17.1330117160578 10.2837100545596  Z M 19.9986216402481 9.07014809041309  C 20.0068917987599 9.19641465315667  19.9779462439697 9.30631332813718  19.9117849758788 9.39984411535464  L 19.1426602343213 10.4380358534684  C 19.0764989662302 10.5222135619641  18.9896623018608 10.5736554949338  18.8821502412129 10.5923616523772  L 18.8449345279118 10.5923616523772  C 18.737422467264 10.5923616523772  18.6505858028945 10.5596258768511  18.5844245348037 10.4941543257989  L 10 2.39906469212783  L 1.4155754651963 10.4941543257989  C 1.31633356305997 10.5689789555729  1.21709166092342 10.601714731099  1.11784975878709 10.5923616523772  C 1.01033769813921 10.5736554949338  0.923501033769753 10.5222135619641  0.857339765678717 10.4380358534684  L 0.0882150241211548 9.39984411535464  C 0.0220537560303455 9.30631332813718  -0.00689179875985246 9.19641465315667  0.00137835975192502 9.07014809041309  C 0.00964851826324775 8.94388152766953  0.0551343900758638 8.84333593141076  0.137835975189319 8.76851130163679  L 9.05720192970375 0.36477007014809  C 9.32184700206767 0.121590023382698  9.63611302549953 0  10 0  C 10.3638869745005 0  10.6781529979323 0.121590023382698  10.9427980702962 0.36477007014809  L 13.9696760854583 3.22681215900234  L 13.9696760854583 0.49103663289166  C 13.9696760854583 0.360093530787218  14.0068917987596 0.252533125487137  14.0813232253615 0.168355416991428  C 14.1557546519641 0.0841777084957158  14.2508614748449 0.0420888542478579  14.3666436940041 0.0420888542478579  L 16.7484493452791 0.0420888542478579  C 16.8642315644383 0.0420888542478579  16.9593383873191 0.0841777084957158  17.0337698139215 0.168355416991428  C 17.1082012405234 0.252533125487137  17.1454169538251 0.360093530787218  17.1454169538251 0.49103663289166  L 17.1454169538251 6.21512081060015  L 19.8621640248105 8.76851130163679  C 19.9448656099241 8.84333593141076  19.9903514817368 8.94388152766953  19.9986216402481 9.07014809041309  Z " fill-rule="nonzero" fill="#ffffff" stroke="none" transform="matrix(1 0 0 1 1800 16 )" />
  </g>
</svg>