<?xml version="1.0" encoding="utf-8"?>
<svg version="1.1" xmlns:xlink="http://www.w3.org/1999/xlink" width="18px" height="18px" xmlns="http://www.w3.org/2000/svg">
  <g transform="matrix(1 0 0 1 -1776 -121 )">
    <path d="M 4.79999999999995 6.42857142857143  C 4.79999999999995 7.359375  5.05312499999991 8.21651785714286  5.55937500000005 9  C 4.546875 9.03348214285714  3.71875 9.46205357142858  3.07500000000005 10.2857142857143  L 1.81874999999991 10.2857142857143  C 1.30625000000009 10.2857142857143  0.875 10.1501116071429  0.525000000000091 9.87890625  C 0.174999999999955 9.60770089285714  0 9.2109375  0 8.68861607142858  C 0 6.32477678571428  0.387500000000045 5.14285714285714  1.16249999999991 5.14285714285714  C 1.20000000000005 5.14285714285714  1.3359375 5.21316964285714  1.5703125 5.35379464285714  C 1.8046875 5.49441964285714  2.109375 5.63671875  2.484375 5.78069196428571  C 2.859375 5.92466517857143  3.23125000000005 5.99665178571429  3.59999999999991 5.99665178571429  C 4.01874999999995 5.99665178571429  4.43437500000005 5.91964285714286  4.84687499999995 5.765625  C 4.81562499999995 6.01339285714286  4.79999999999995 6.234375  4.79999999999995 6.42857142857143  Z M 15.5671875 14.3588169642857  C 15.5890625 14.6969866071429  15.5999999999999 15.0435267857143  15.5999999999999 15.3984375  C 15.5999999999999 16.2020089285714  15.371875 16.8364955357143  14.9156250000001 17.3018973214286  C 14.4593749999999 17.7672991071429  13.8531250000001 18  13.096875 18  L 4.90312500000005 18  C 4.14687499999991 18  3.54062500000009 17.7672991071429  3.08437499999991 17.3018973214286  C 2.62812499999995 16.8364955357143  2.40000000000009 16.2020089285714  2.40000000000009 15.3984375  C 2.40000000000009 15.0435267857143  2.41093750000005 14.6969866071429  2.43281249999995 14.3588169642857  C 2.45468750000009 14.0206473214286  2.49843749999991 13.6556919642857  2.56406250000009 13.2639508928571  C 2.62968750000005 12.8722098214286  2.71250000000009 12.5089285714286  2.8125 12.1741071428571  C 2.91249999999991 11.8392857142857  3.046875 11.5128348214286  3.21562500000005 11.1947544642857  C 3.38437500000009 10.8766741071429  3.578125 10.60546875  3.796875 10.3811383928571  C 4.015625 10.1568080357143  4.28281250000009 9.97767857142858  4.59843750000005 9.84375  C 4.9140625 9.70982142857142  5.26250000000005 9.64285714285714  5.64374999999995 9.64285714285714  C 5.70624999999995 9.64285714285714  5.84062500000005 9.71484375  6.046875 9.85881696428572  C 6.25312499999995 10.0027901785714  6.48125000000005 10.1635044642857  6.73125000000005 10.3409598214286  C 6.98125000000005 10.5184151785714  7.31562499999995 10.6791294642857  7.734375 10.8231026785714  C 8.15312500000005 10.9670758928571  8.57500000000005 11.0390625  9 11.0390625  C 9.42499999999995 11.0390625  9.84687499999995 10.9670758928571  10.265625 10.8231026785714  C 10.684375 10.6791294642857  11.01875 10.5184151785714  11.26875 10.3409598214286  C 11.51875 10.1635044642857  11.746875 10.0027901785714  11.953125 9.85881696428572  C 12.159375 9.71484375  12.29375 9.64285714285714  12.35625 9.64285714285714  C 12.7375 9.64285714285714  13.0859375 9.70982142857142  13.4015625 9.84375  C 13.7171874999999 9.97767857142858  13.984375 10.1568080357143  14.203125 10.3811383928571  C 14.421875 10.60546875  14.6156249999999 10.8766741071429  14.784375 11.1947544642857  C 14.953125 11.5128348214286  15.0875000000001 11.8392857142857  15.1875 12.1741071428571  C 15.2874999999999 12.5089285714286  15.3703125 12.8722098214286  15.4359374999999 13.2639508928571  C 15.5015625000001 13.6556919642857  15.5453124999999 14.0206473214286  15.5671875 14.3588169642857  Z M 5.296875 0.753348214285708  C 5.765625 1.25558035714286  6 1.86160714285714  6 2.57142857142857  C 6 3.28125  5.765625 3.88727678571429  5.296875 4.38950892857143  C 4.828125 4.89174107142857  4.26250000000005 5.14285714285714  3.59999999999991 5.14285714285714  C 2.9375 5.14285714285714  2.37187500000005 4.89174107142857  1.90312500000005 4.38950892857143  C 1.43437500000005 3.88727678571429  1.20000000000005 3.28125  1.20000000000005 2.57142857142857  C 1.20000000000005 1.86160714285714  1.43437500000005 1.25558035714286  1.90312500000005 0.753348214285708  C 2.37187500000005 0.251116071428569  2.9375 0  3.59999999999991 0  C 4.26250000000005 0  4.828125 0.251116071428569  5.296875 0.753348214285708  Z M 11.5453124999999 3.70145089285714  C 12.2484374999999 4.45479910714286  12.5999999999999 5.36383928571429  12.5999999999999 6.42857142857143  C 12.5999999999999 7.49330357142858  12.2484374999999 8.40234375  11.5453124999999 9.15569196428572  C 10.8421874999999 9.90904017857142  9.99375000000009 10.2857142857143  9 10.2857142857143  C 8.00624999999991 10.2857142857143  7.15781250000009 9.90904017857142  6.45468750000009 9.15569196428572  C 5.75156250000009 8.40234375  5.40000000000009 7.49330357142858  5.40000000000009 6.42857142857143  C 5.40000000000009 5.36383928571429  5.75156250000009 4.45479910714286  6.45468750000009 3.70145089285714  C 7.15781250000009 2.94810267857143  8.00624999999991 2.57142857142857  9 2.57142857142857  C 9.99375000000009 2.57142857142857  10.8421874999999 2.94810267857143  11.5453124999999 3.70145089285714  Z M 16.8375000000001 5.14285714285714  C 17.6125 5.14285714285714  18 6.32477678571428  18 8.68861607142858  C 18 9.2109375  17.825 9.60770089285714  17.4749999999999 9.87890625  C 17.125 10.1501116071429  16.6937499999999 10.2857142857143  16.1812500000001 10.2857142857143  L 14.925 10.2857142857143  C 14.28125 9.46205357142858  13.453125 9.03348214285714  12.440625 9  C 12.9468750000001 8.21651785714286  13.2 7.359375  13.2 6.42857142857143  C 13.2 6.234375  13.184375 6.01339285714286  13.153125 5.765625  C 13.565625 5.91964285714286  13.98125 5.99665178571429  14.4000000000001 5.99665178571429  C 14.76875 5.99665178571429  15.140625 5.92466517857143  15.515625 5.78069196428571  C 15.890625 5.63671875  16.1953125 5.49441964285714  16.4296875 5.35379464285714  C 16.6640625 5.21316964285714  16.8 5.14285714285714  16.8375000000001 5.14285714285714  Z M 16.096875 0.753348214285708  C 16.565625 1.25558035714286  16.8 1.86160714285714  16.8 2.57142857142857  C 16.8 3.28125  16.565625 3.88727678571429  16.096875 4.38950892857143  C 15.628125 4.89174107142857  15.0625 5.14285714285714  14.4000000000001 5.14285714285714  C 13.7375 5.14285714285714  13.171875 4.89174107142857  12.703125 4.38950892857143  C 12.234375 3.88727678571429  12 3.28125  12 2.57142857142857  C 12 1.86160714285714  12.234375 1.25558035714286  12.703125 0.753348214285708  C 13.171875 0.251116071428569  13.7375 0  14.4000000000001 0  C 15.0625 0  15.628125 0.251116071428569  16.096875 0.753348214285708  Z " fill-rule="nonzero" fill="#ffffff" stroke="none" transform="matrix(1 0 0 1 1776 121 )" />
  </g>
</svg>