<?xml version="1.0" encoding="utf-8"?>
<svg version="1.1" xmlns:xlink="http://www.w3.org/1999/xlink" width="18px" height="18px" xmlns="http://www.w3.org/2000/svg">
  <g transform="matrix(1 0 0 1 -1776 -171 )">
    <path d="M 17.0833541775626 3.59765625  C 17.3571740783693 3.71484375  17.5697447908376 3.8828125  17.7210663149676 4.1015625  C 18.009297789501 4.546875  18.0741498712712 5.05078125  17.9156225602778 5.61328125  L 14.943235479152 16.23046875  C 14.8063255287486 16.73046875  14.5307041812259 17.150390625  14.1163714365844 17.490234375  C 13.7020386919426 17.830078125  13.2606842465634 18  12.7923081004467 18  L 2.81589618815906 18  C 2.26105059968222 18  1.72602092507964 17.791015625  1.21080716435108 17.373046875  C 0.695593403622752 16.955078125  0.337105507171827 16.44140625  0.135343474998308 15.83203125  C -0.0375954097216891 15.30859375  -0.0448011965850128 14.8125  0.113726114408564 14.34375  C 0.113726114408564 14.3125  0.12453479470355 14.20703125  0.146152155293521 14.02734375  C 0.167769515883265 13.84765625  0.182181089609912 13.703125  0.189386876473463 13.59375  C 0.196592663336787 13.53125  0.185783983041802 13.447265625  0.156960835588507 13.341796875  C 0.128137688135212 13.236328125  0.117329007839999 13.16015625  0.12453479470355 13.11328125  C 0.138946368430197 13.02734375  0.167769515883265 12.9453125  0.211004237063435 12.8671875  C 0.254238958243377 12.7890625  0.313686699866139 12.697265625  0.389347461931038 12.591796875  C 0.465008223996165 12.486328125  0.524455965618472 12.39453125  0.567690686798642 12.31640625  C 0.733423784655315 12.01953125  0.895553989080327 11.662109375  1.05408130007368 11.244140625  C 1.21260861106703 10.826171875  1.32069541401711 10.46875  1.3783417089237 10.171875  C 1.39995906951367 10.09375  1.40176051622961 9.9765625  1.38374604907131 9.8203125  C 1.36573158191277 9.6640625  1.36393013519705 9.5546875  1.3783417089237 9.4921875  C 1.39995906951367 9.40625  1.46120825785192 9.296875  1.56208927393891 9.1640625  C 1.66297029002567 9.03125  1.72421947836392 8.94140625  1.74583683895389 8.89453125  C 1.89715836308392 8.61328125  2.04847988721394 8.25390625  2.19980141134397 7.81640625  C 2.351122935474 7.37890625  2.44119527126554 7.02734375  2.47001841871906 6.76171875  C 2.47722420558239 6.69140625  2.46821697200335 6.56640625  2.44299671798149 6.38671875  C 2.41777646395985 6.20703125  2.4195779106758 6.09765625  2.44840105812909 6.05859375  C 2.47722420558239 5.95703125  2.55648786107895 5.837890625  2.686192024619 5.701171875  C 2.81589618815906 5.564453125  2.89515984365562 5.4765625  2.92398299110914 5.4375  C 3.06089294151252 5.234375  3.21401591235826 4.904296875  3.3833519036466 4.447265625  C 3.55268789493493 3.990234375  3.65176746430575 3.61328125  3.68059061175927 3.31640625  C 3.6877963986226 3.25390625  3.67698771832761 3.154296875  3.64816457087431 3.017578125  C 3.61934142342079 2.880859375  3.6121356365577 2.77734375  3.62654721028434 2.70703125  C 3.64095878401099 2.64453125  3.67338482489595 2.57421875  3.72382533293921 2.49609375  C 3.77426584098271 2.41796875  3.83911792275262 2.328125  3.91838157824941 2.2265625  C 3.99764523374597 2.125  4.05889442208422 2.04296875  4.10212914326439 1.98046875  C 4.15977543817098 1.88671875  4.21922317979374 1.767578125  4.280472368132 1.623046875  C 4.34172155647025 1.478515625  4.39576495794518 1.341796875  4.44260257255678 1.212890625  C 4.48944018716884 1.083984375  4.5470864820752 0.943359375  4.615541457277 0.791015625  C 4.68399643247858 0.638671875  4.75425285439633 0.513671875  4.82631072302956 0.416015625  C 4.8983685916628 0.318359375  4.99384526760218 0.2265625  5.11274075084725 0.140625  C 5.23163623409232 0.0546875  5.36134039763215 0.009765625  5.50185324146742 0.005859375  C 5.64236608530223 0.001953125  5.81350352330651 0.0234375  6.0152655554798 0.0703125  L 6.00445687518481 0.10546875  C 6.27827677599157 0.03515625  6.46202434100678 0  6.55569957022999 0  L 14.781105274727 0  C 15.3143335026139 0  15.725063353824 0.21875  16.0132948283572 0.65625  C 16.3015263028906 1.09375  16.3663783846607 1.6015625  16.2078510736674 2.1796875  L 13.2462726728368 12.796875  C 12.9868643457564 13.7265625  12.7292574653923 14.326171875  12.473452031744 14.595703125  C 12.2176465980956 14.865234375  11.7546747921263 15  11.084536613836 15  L 1.69179343747896 15  C 1.49723719216877 15  1.36032724176539 15.05859375  1.2810635862686 15.17578125  C 1.20179993077204 15.30078125  1.19819703734038 15.46875  1.27025490597384 15.6796875  C 1.44319379069384 16.2265625  1.96201044485383 16.5  2.82670486845404 16.5  L 12.8031167807414 16.5  C 13.0120845997783 16.5  13.2138466319518 16.439453125  13.4084028772616 16.318359375  C 13.6029591225717 16.197265625  13.7290603926801 16.03515625  13.7867066875867 15.83203125  L 17.0293107760876 4.265625  C 17.0797512841309 4.09375  17.0977657512892 3.87109375  17.0833541775626 3.59765625  Z M 6.44761276727991 3.375  L 6.22063048108498 4.125  C 6.19180733363169 4.2265625  6.19901312049478 4.314453125  6.24224784167495 4.388671875  C 6.2854825628549 4.462890625  6.35754043148836 4.5  6.45842144757512 4.5  L 13.0300990669366 4.5  C 13.12377429616 4.5  13.2156480786675 4.462890625  13.3057204144591 4.388671875  C 13.3957927502508 4.314453125  13.4552404918734 4.2265625  13.4840636393267 4.125  L 13.7110459255216 3.375  C 13.7398690729749 3.2734375  13.7326632861118 3.185546875  13.6894285649316 3.111328125  C 13.6461938437517 3.037109375  13.5741359751182 3  13.4732549590317 3  L 6.90157733966998 3  C 6.80790211044678 3  6.71602832793906 3.037109375  6.62595599214751 3.111328125  C 6.53588365635574 3.185546875  6.47643591473343 3.2734375  6.44761276727991 3.375  Z M 5.55049230279474 6.375  L 5.32351001659958 7.125  C 5.29468686914629 7.2265625  5.30189265600961 7.314453125  5.34512737718978 7.388671875  C 5.38836209836973 7.462890625  5.46041996700296 7.5  5.56130098308972 7.5  L 12.1329786024514 7.5  C 12.2266538316746 7.5  12.3185276141824 7.462890625  12.4085999499739 7.388671875  C 12.4986722857657 7.314453125  12.5581200273882 7.2265625  12.5869431748415 7.125  L 12.8139254610364 6.375  C 12.84274860849 6.2734375  12.8355428216264 6.185546875  12.7923081004467 6.111328125  C 12.7490733792665 6.037109375  12.6770155106333 6  12.5761344945465 6  L 6.00445687518481 6  C 5.91078164596138 6  5.81890786345411 6.037109375  5.72883552766234 6.111328125  C 5.63876319187057 6.185546875  5.57931545024803 6.2734375  5.55049230279474 6.375  Z " fill-rule="nonzero" fill="#ffffff" stroke="none" transform="matrix(1 0 0 1 1776 171 )" />
  </g>
</svg>