<?xml version="1.0" encoding="utf-8"?>
<svg version="1.1" xmlns:xlink="http://www.w3.org/1999/xlink" width="24px" height="24px" xmlns="http://www.w3.org/2000/svg">
  <g transform="matrix(1 0 0 1 -529 -85 )">
    <path d="M 14.71875 14.71875  C 15.9831730769231 13.4543269230769  16.6153846153846 11.9326923076923  16.6153846153846 10.1538461538462  C 16.6153846153846 8.375  15.9831730769231 6.85336538461539  14.71875 5.58894230769231  C 13.4543269230769 4.32451923076923  11.9326923076923 3.69230769230769  10.1538461538461 3.69230769230769  C 8.375 3.69230769230769  6.85336538461536 4.32451923076923  5.58894230769232 5.58894230769231  C 4.32451923076923 6.85336538461539  3.69230769230768 8.375  3.69230769230768 10.1538461538462  C 3.69230769230768 11.9326923076923  4.32451923076923 13.4543269230769  5.58894230769232 14.71875  C 6.85336538461536 15.9831730769231  8.375 16.6153846153846  10.1538461538461 16.6153846153846  C 11.9326923076923 16.6153846153846  13.4543269230769 15.9831730769231  14.71875 14.71875  Z M 23.4663461538461 20.8557692307692  C 23.8221153846154 21.2115384615385  24 21.6442307692308  24 22.1538461538462  C 24 22.6538461538461  23.8173076923077 23.0865384615385  23.4519230769231 23.4519230769231  C 23.0865384615385 23.8173076923077  22.6538461538462 24  22.1538461538461 24  C 21.6346153846154 24  21.2019230769231 23.8173076923077  20.8557692307692 23.4519230769231  L 15.9086538461539 18.5192307692308  C 14.1875 19.7115384615385  12.2692307692307 20.3076923076923  10.1538461538461 20.3076923076923  C 8.77884615384619 20.3076923076923  7.46394230769226 20.0408653846154  6.20913461538458 19.5072115384615  C 4.95432692307691 18.9735576923077  3.87259615384613 18.2524038461538  2.96394230769232 17.34375  C 2.05528846153845 16.4350961538462  1.33413461538458 15.3533653846154  0.800480769230774 14.0985576923077  C 0.266826923076906 12.84375  0 11.5288461538462  0 10.1538461538462  C 0 8.77884615384615  0.266826923076906 7.46394230769231  0.800480769230774 6.20913461538461  C 1.33413461538458 4.95432692307693  2.05528846153845 3.87259615384616  2.96394230769232 2.96394230769231  C 3.87259615384613 2.05528846153847  4.95432692307691 1.33413461538461  6.20913461538458 0.800480769230774  C 7.46394230769226 0.266826923076934  8.77884615384619 0  10.1538461538461 0  C 11.5288461538462 0  12.84375 0.266826923076934  14.0985576923077 0.800480769230774  C 15.3533653846154 1.33413461538461  16.4350961538461 2.05528846153847  17.34375 2.96394230769231  C 18.2524038461539 3.87259615384616  18.9735576923077 4.95432692307693  19.5072115384615 6.20913461538461  C 20.0408653846154 7.46394230769231  20.3076923076923 8.77884615384615  20.3076923076923 10.1538461538462  C 20.3076923076923 12.2692307692308  19.7115384615385 14.1875  18.5192307692308 15.9086538461538  L 23.4663461538461 20.8557692307692  Z " fill-rule="nonzero" fill="#1f89f5" stroke="none" transform="matrix(1 0 0 1 529 85 )" />
  </g>
</svg>