<?xml version="1.0" encoding="utf-8"?>
<svg version="1.1" xmlns:xlink="http://www.w3.org/1999/xlink" width="15px" height="14px" xmlns="http://www.w3.org/2000/svg">
  <g transform="matrix(1 0 0 1 -1654 -483 )">
    <path d="M 10.0164205639785 12.0703125  C 10.0675341992196 12.1171875  10.0930910168404 12.1770833333333  10.0930910168404 12.25  L 10.0930910168404 13.75  C 10.0930910168404 13.8229166666667  10.0675341992196 13.8828125  10.0164205639785 13.9296875  C 9.96530692873716 13.9765625  9.89999506148479 14  9.82048496222046 14  L 7.63963652526058 14  C 7.56012642599671 14  7.49481455874366 13.9765625  7.44370092350232 13.9296875  C 7.39258728826121 13.8828125  7.36703047064043 13.8229166666667  7.36703047064043 13.75  L 7.36703047064043 12.25  C 7.36703047064043 12.1770833333333  7.39258728826121 12.1171875  7.44370092350232 12.0703125  C 7.49481455874366 12.0234375  7.56012642599671 12  7.63963652526058 12  L 9.82048496222046 12  C 9.89999506148479 12  9.96530692873716 12.0234375  10.0164205639785 12.0703125  Z M 5.92732974467867 11.0703125  C 5.97844337992024 11.1171875  6.00400019754056 11.1770833333333  6.00400019754056 11.25  C 6.00400019754056 11.3125  5.9756037335178 11.375  5.91881080547182 11.4375  L 3.20126919847894 13.9296875  C 3.14447627043319 13.9765625  3.07916440318058 14  3.00533359672067 14  C 2.93718208306609 14  2.87187021581326 13.9765625  2.80939799496309 13.9296875  L 0.0833374487629044 11.4296875  C -0.00185194330583727 11.3463541666667  -0.0217294681217481 11.2552083333333  0.023704874314717 11.15625  C 0.0691392167514095 11.0520833333333  0.154328608820151 11  0.279273050521169 11  L 2 11  L 2 0.25  C 1.91490937824096 0.177083333333314  1.94046619586152 0.1171875  1.99157983110285 0.0703125  C 2.04269346634396 0.0234375  2.10800533359702 0  2.18751543286089 0  L 3.82315176058069 0  C 3.90266185984478 0  3.96797372709761 0.0234375  4.01908736233895 0.0703125  C 4.07020099758051 0.1171875  4.09575781520084 0.177083333333314  4 0.25  L 4 11  L 5.73139414292086 11  C 5.81090424218473 11  5.87621610943756 11.0234375  5.92732974467867 11.0703125  Z M 11.6520568916985 8.0703125  C 11.7031705269396 8.1171875  11.7287273445602 8.17708333333331  11.7287273445602 8.25  L 11.7287273445602 9.75  C 11.7287273445602 9.82291666666669  11.7031705269396 9.8828125  11.6520568916985 9.9296875  C 11.6009432564572 9.9765625  11.5356313892041 10  11.4561212899403 10  L 7.63963652526058 10  C 7.56012642599671 10  7.49481455874366 9.9765625  7.44370092350232 9.9296875  C 7.39258728826121 9.8828125  7.36703047064043 9.82291666666669  7.36703047064043 9.75  L 7.36703047064043 8.25  C 7.36703047064043 8.17708333333331  7.39258728826121 8.1171875  7.44370092350232 8.0703125  C 7.49481455874366 8.0234375  7.56012642599671 8  7.63963652526058 8  L 11.4561212899403 8  C 11.5356313892041 8  11.6009432564572 8.0234375  11.6520568916985 8.0703125  Z M 13.2876932194181 4.0703125  C 13.3388068546597 4.1171875  13.3643636722802 4.17708333333331  13.3643636722802 4.25  L 13.3643636722802 5.75  C 13.3643636722802 5.82291666666669  13.3388068546597 5.8828125  13.2876932194181 5.9296875  C 13.236579584177 5.9765625  13.1712677169241 6  13.0917576176603 6  L 7.63963652526058 6  C 7.56012642599671 6  7.49481455874366 5.9765625  7.44370092350232 5.9296875  C 7.39258728826121 5.8828125  7.36703047064043 5.82291666666669  7.36703047064043 5.75  L 7.36703047064043 4.25  C 7.36703047064043 4.17708333333331  7.39258728826121 4.1171875  7.44370092350232 4.0703125  C 7.49481455874366 4.0234375  7.56012642599671 4  7.63963652526058 4  L 13.0917576176603 4  C 13.1712677169241 4  13.236579584177 4.0234375  13.2876932194181 4.0703125  Z M 14.9233295471381 0.0703125  C 14.9744431823797 0.1171875  15 0.177083333333314  15 0.25  L 15 1.75  C 15 1.82291666666669  14.9744431823797 1.8828125  14.9233295471381 1.9296875  C 14.8722159118968 1.9765625  14.8069040446442 2  14.7273939453798 2  L 7.63963652526058 2  C 7.56012642599671 2  7.49481455874366 1.9765625  7.44370092350232 1.9296875  C 7.39258728826121 1.8828125  7.36703047064043 1.82291666666669  7.36703047064043 1.75  L 7.36703047064043 0.25  C 7.36703047064043 0.177083333333314  7.39258728826121 0.1171875  7.44370092350232 0.0703125  C 7.49481455874366 0.0234375  7.56012642599671 0  7.63963652526058 0  L 14.7273939453798 0  C 14.8069040446442 0  14.8722159118968 0.0234375  14.9233295471381 0.0703125  Z " fill-rule="nonzero" fill="#ffffff" stroke="none" transform="matrix(1 0 0 1 1654 483 )" />
  </g>
</svg>