<?xml version="1.0" encoding="utf-8"?>
<svg version="1.1" xmlns:xlink="http://www.w3.org/1999/xlink" width="16px" height="16px" xmlns="http://www.w3.org/2000/svg">
  <g transform="matrix(1 0 0 1 -1858 -483 )">
    <path d="M 7.7986754966887 8.20132450331127  C 7.93289183222964 8.3355408388521  8 8.49448123620309  8 8.67814569536424  L 8 13.4251655629139  C 8 13.608830022075  7.93289183222964 13.7677704194261  7.7986754966887 13.9019867549669  C 7.66445916114799 14.0362030905077  7.505518763797 14.1033112582782  7.32185430463574 14.1033112582782  C 7.1381898454747 14.1033112582782  6.97924944812371 14.0362030905077  6.84503311258277 13.9019867549669  L 5.31920529801323 12.3761589403973  L 1.80132450331121 15.8940397350993  C 1.73068432671084 15.9646799116998  1.64944812362023 16  1.55761589403983 16  C 1.4657836644592 16  1.38454746136858 15.9646799116998  1.31390728476822 15.8940397350993  L 0.105960264900659 14.6860927152318  C 0.0353200883002955 14.6154525386313  0 14.5342163355408  0 14.4423841059603  C 0 14.3505518763797  0.0353200883002955 14.2693156732892  0.105960264900659 14.1986754966887  L 3.62384105960268 10.6807947019868  L 2.09801324503314 9.15496688741723  C 1.9637969094922 9.02075055187638  1.89668874172185 8.86181015452539  1.89668874172185 8.67814569536424  C 1.89668874172185 8.49448123620309  1.9637969094922 8.3355408388521  2.09801324503314 8.20132450331127  C 2.23222958057386 8.06710816777041  2.39116997792485 8  2.57483443708611 8  L 7.32185430463574 8  C 7.505518763797 8  7.66445916114799 8.06710816777041  7.7986754966887 8.20132450331127  Z M 15.8940397350993 1.31390728476822  C 15.9646799116997 1.38454746136864  16 1.46578366445917  16 1.55761589403974  C 16 1.64944812362032  15.9646799116997 1.73068432671081  15.8940397350993 1.80132450331126  L 12.3761589403973 5.31920529801323  L 13.9019867549669 6.84503311258277  C 14.0362030905078 6.97924944812362  14.1033112582782 7.13818984547461  14.1033112582782 7.32185430463576  C 14.1033112582782 7.50551876379691  14.0362030905078 7.6644591611479  13.9019867549669 7.79867549668873  C 13.7677704194261 7.93289183222959  13.6088300220752 8  13.4251655629139 8  L 8.67814569536426 8  C 8.494481236203 8  8.33554083885201 7.93289183222959  8.2013245033113 7.79867549668873  C 8.06710816777036 7.6644591611479  8 7.50551876379691  8 7.32185430463576  L 8 2.57483443708608  C 8 2.39116997792496  8.06710816777036 2.23222958057394  8.2013245033113 2.09801324503312  C 8.33554083885201 1.96379690949229  8.494481236203 1.89668874172185  8.67814569536426 1.89668874172185  C 8.8618101545253 1.89668874172185  9.02075055187629 1.96379690949229  9.15496688741723 2.09801324503312  L 10.6807947019868 3.62384105960265  L 14.1986754966888 0.105960264900659  C 14.2693156732892 0.0353200883002103  14.3505518763798 0  14.4423841059602 0  C 14.5342163355408 0  14.6154525386314 0.0353200883002103  14.6860927152318 0.105960264900659  L 15.8940397350993 1.31390728476822  Z " fill-rule="nonzero" fill="#ffffff" stroke="none" transform="matrix(1 0 0 1 1858 483 )" />
  </g>
</svg>