<?xml version="1.0" encoding="utf-8"?>
<svg version="1.1" xmlns:xlink="http://www.w3.org/1999/xlink" width="12px" height="12px" xmlns="http://www.w3.org/2000/svg">
  <g transform="matrix(1 0 0 1 -1780 -530 )">
    <path d="M 11.7150192554557 5.60869565217388  C 11.9050064184851 5.82065217391312  12 6.06793478260863  12 6.35054347826087  C 12 6.62771739130426  11.9050064184851 6.87228260869574  11.7150192554557 7.08423913043475  L 11.1373555840821 7.69565217391312  C 10.9422336328628 7.9021739130435  10.7086007702183 8.00543478260863  10.436456996149 8.00543478260863  C 10.1591784338896 8.00543478260863  9.92811296534023 7.9021739130435  9.74326059050077 7.69565217391312  L 7.47881899871641 5.30706521739125  L 7.47881899871641 11.0461956521739  C 7.47881899871641 11.328804347826  7.38254172015399 11.5584239130434  7.18998716302963 11.7350543478261  C 6.99743260590503 11.9116847826087  6.76508344030822 12  6.49293966623873 12  L 5.50706033376127 12  C 5.23491655969178 12  5.00256739409497 11.9116847826087  4.81001283697037 11.7350543478261  C 4.61745827984601 11.5584239130434  4.52118100128359 11.328804347826  4.52118100128359 11.0461956521739  L 4.52118100128359 5.30706521739125  L 2.25673940949923 7.69565217391312  C 2.07188703465977 7.9021739130435  1.84082156611044 8.00543478260863  1.56354300385101 8.00543478260863  C 1.28626444159181 8.00543478260863  1.05519897304225 7.9021739130435  0.870346598202786 7.69565217391312  L 0.292682926829229 7.08423913043475  C 0.0975609756096674 6.87771739130437  0 6.633152173913  0 6.35054347826087  C 0 6.0625  0.0975609756096674 5.81521739130437  0.292682926829229 5.60869565217388  L 5.30680359435178 0.301630434782624  C 5.48652118100131 0.100543478260875  5.71758664955064 0  6 0  C 6.27727856225943 0  6.51091142490372 0.100543478260875  6.70089858793335 0.301630434782624  L 11.7150192554557 5.60869565217388  Z " fill-rule="nonzero" fill="#ff2626" stroke="none" transform="matrix(1 0 0 1 1780 530 )" />
  </g>
</svg>