<?xml version="1.0" encoding="utf-8"?>
<svg version="1.1" xmlns:xlink="http://www.w3.org/1999/xlink" width="12px" height="12px" xmlns="http://www.w3.org/2000/svg">
  <g transform="matrix(1 0 0 1 -1780 -621 )">
    <path d="M 11.7150192554557 4.96021577882668  C 11.9050064184853 5.17060013486178  12 5.41604855023603  12 5.69656102494942  C 12 5.98246797033043  11.9050064184853 6.22521915037087  11.7150192554557 6.42481456507086  L 6.70089858793335 11.7006068779501  C 6.50064184852386 11.9002022926501  6.26700898587933 12  6 12  C 5.72785622593074 12  5.49679075738118 11.9002022926501  5.30680359435178 11.7006068779501  L 0.292682926829229 6.42481456507086  C 0.0975609756096674 6.23061362103848  0 5.98786244099793  0 5.69656102494942  C 0 5.41065407956842  0.0975609756096674 5.16520566419417  0.292682926829229 4.96021577882668  L 0.862644415917885 4.35333782872553  C 1.06290115532738 4.15374241402565  1.29653401797168 4.0539447066756  1.56354300385101 4.0539447066756  C 1.8356867779205 4.0539447066756  2.06675224646983 4.15374241402565  2.25673940949946 4.35333782872553  L 4.52118100128359 6.73229939312209  L 4.52118100128359 1.03573836817267  C 4.52118100128359 0.755225893459156  4.61874197689349 0.512474713418717  4.81386392811305 0.30748482805123  C 5.00898587933239 0.102494942683743  5.24005134788194 0  5.50706033376127 0  L 6.49293966623873 0  C 6.75994865211806 0  6.99101412066761 0.102494942683743  7.18613607188695 0.30748482805123  C 7.38125802310651 0.512474713418717  7.47881899871641 0.755225893459156  7.47881899871641 1.03573836817267  L 7.47881899871641 6.73229939312209  L 9.74326059050054 4.35333782872553  C 9.93324775353017 4.15374241402565  10.1643132220795 4.0539447066756  10.436456996149 4.0539447066756  C 10.7034659820283 4.0539447066756  10.9370988446726 4.15374241402565  11.1373555840821 4.35333782872553  L 11.7150192554557 4.96021577882668  Z " fill-rule="nonzero" fill="#ff2626" stroke="none" transform="matrix(1 0 0 1 1780 621 )" />
  </g>
</svg>