<?xml version="1.0" encoding="utf-8"?>
<svg version="1.1" xmlns:xlink="http://www.w3.org/1999/xlink" width="14px" height="14px" xmlns="http://www.w3.org/2000/svg">
  <g transform="matrix(1 0 0 1 -1804 -173 )">
    <path d="M 9.69230769230762 4.68629807692307  L 4.68629807692309 9.69230769230768  L 9.69230769230762 9.69230769230768  L 9.69230769230762 4.68629807692307  Z M 4.30769230769238 4.30769230769232  L 4.30769230769238 9.31370192307693  L 9.31370192307691 4.30769230769232  L 4.30769230769238 4.30769230769232  Z M 13.9242788461538 9.76802884615384  C 13.9747596153845 9.81850961538461  14 9.88301282051282  14 9.96153846153845  L 14 11.5769230769231  C 14 11.6554487179487  13.9747596153845 11.7199519230769  13.9242788461538 11.7704326923077  C 13.8737980769231 11.8209134615385  13.8092948717949 11.8461538461538  13.7307692307693 11.8461538461538  L 11.8461538461538 11.8461538461538  L 11.8461538461538 13.7307692307692  C 11.8461538461538 13.8092948717949  11.8209134615386 13.8737980769231  11.7704326923076 13.9242788461538  C 11.7199519230769 13.9747596153846  11.6554487179487 14  11.5769230769231 14  L 9.96153846153857 14  C 9.88301282051293 14  9.81850961538453 13.9747596153846  9.76802884615381 13.9242788461538  C 9.71754807692309 13.8737980769231  9.69230769230762 13.8092948717949  9.69230769230762 13.7307692307692  L 9.69230769230762 11.8461538461538  L 2.42307692307691 11.8461538461538  C 2.34455128205127 11.8461538461538  2.28004807692309 11.8209134615385  2.22956730769238 11.7704326923077  C 2.17908653846143 11.7199519230769  2.15384615384619 11.6554487179487  2.15384615384619 11.5769230769231  L 2.15384615384619 4.30769230769232  L 0.269230769230717 4.30769230769232  C 0.190705128205082 4.30769230769232  0.126201923076906 4.28245192307693  0.0757211538461888 4.23197115384616  C 0.0252403846154721 4.18149038461539  0 4.11698717948718  0 4.03846153846155  L 0 2.42307692307693  C 0 2.34455128205127  0.0252403846154721 2.28004807692307  0.0757211538461888 2.22956730769232  C 0.126201923076906 2.17908653846155  0.190705128205082 2.15384615384616  0.269230769230717 2.15384615384616  L 2.15384615384619 2.15384615384616  L 2.15384615384619 0.269230769230774  C 2.15384615384619 0.190705128205138  2.17908653846143 0.126201923076934  2.22956730769238 0.0757211538461604  C 2.28004807692309 0.0252403846153868  2.34455128205127 0  2.42307692307691 0  L 4.03846153846143 0  C 4.11698717948707 0  4.18149038461547 0.0252403846153868  4.23197115384619 0.0757211538461604  C 4.28245192307691 0.126201923076934  4.30769230769238 0.190705128205138  4.30769230769238 0.269230769230774  L 4.30769230769238 2.15384615384616  L 11.4675480769231 2.15384615384616  L 13.5372596153845 0.0757211538461604  C 13.5933493589744 0.0252403846153868  13.6578525641025 0  13.7307692307693 0  C 13.8036858974358 0  13.8681891025642 0.0252403846153868  13.9242788461538 0.0757211538461604  C 13.9747596153845 0.131810897435884  14 0.196314102564116  14 0.269230769230774  C 14 0.342147435897431  13.9747596153845 0.406650641025635  13.9242788461538 0.462740384615387  L 11.8461538461538 2.53245192307693  L 11.8461538461538 9.69230769230768  L 13.7307692307693 9.69230769230768  C 13.8092948717949 9.69230769230768  13.8737980769231 9.71754807692307  13.9242788461538 9.76802884615384  Z " fill-rule="nonzero" fill="#999999" stroke="none" transform="matrix(1 0 0 1 1804 173 )" />
  </g>
</svg>