<?xml version="1.0" encoding="utf-8"?>
<svg version="1.1" xmlns:xlink="http://www.w3.org/1999/xlink" width="28px" height="40px" xmlns="http://www.w3.org/2000/svg">
  <defs>
    <filter x="545px" y="391px" width="28px" height="40px" filterUnits="userSpaceOnUse" id="filter103">
      <feOffset dx="2" dy="1" in="SourceAlpha" result="shadowOffsetInner" />
      <feGaussianBlur stdDeviation="1" in="shadowOffsetInner" result="shadowGaussian" />
      <feComposite in2="shadowGaussian" operator="atop" in="SourceAlpha" result="shadowComposite" />
      <feColorMatrix type="matrix" values="0 0 0 0 0  0 0 0 0 0  0 0 0 0 0  0 0 0 0.6 0  " in="shadowComposite" />
    </filter>
    <g id="widget104">
      <path d="M 16.2421875000001 16.2421875  C 17.4140625000001 15.0703125  17.9999999999999 13.65625  17.9999999999999 12  C 17.9999999999999 10.34375  17.4140625000001 8.9296875  16.2421875000001 7.7578125  C 15.0703125000001 6.5859375  13.6562499999999 6  12 6  C 10.3437500000001 6  8.92968749999989 6.5859375  7.75781249999989 7.7578125  C 6.58593749999989 8.9296875  6.00000000000011 10.34375  6.00000000000011 12  C 6.00000000000011 13.65625  6.58593749999989 15.0703125  7.75781249999989 16.2421875  C 8.92968749999989 17.4140625  10.3437500000001 18  12 18  C 13.6562499999999 18  15.0703125000001 17.4140625  16.2421875000001 16.2421875  Z M 20.484375 3.515625  C 22.828125 5.859375  24 8.6875  24 12  C 24 13.703125  23.7421874999999 15.1015625  23.2265625 16.1953125  L 14.6953125 34.3359375  C 14.4453125000001 34.8515625  14.0742187500001 35.2578125  13.58203125 35.5546875  C 13.0898437499999 35.8515625  12.5624999999999 36  12 36  C 11.4375000000001 36  10.9101562500001 35.8515625  10.41796875 35.5546875  C 9.92578124999989 35.2578125  9.56250000000011 34.8515625  9.32812500000011 34.3359375  L 0.7734375 16.1953125  C 0.257812500000114 15.1015625  0 13.703125  0 12  C 0 8.6875  1.171875 5.859375  3.515625 3.515625  C 5.859375 1.171875  8.6875 0  12 0  C 15.3125 0  18.140625 1.171875  20.484375 3.515625  Z " fill-rule="nonzero" fill="#11b35a" stroke="none" transform="matrix(1 0 0 1 545 392 )" />
    </g>
  </defs>
  <g transform="matrix(1 0 0 1 -545 -391 )">
    <use xlink:href="#widget104" filter="url(#filter103)" />
    <use xlink:href="#widget104" />
  </g>
</svg>