<?xml version="1.0" encoding="utf-8"?>
<svg version="1.1" xmlns:xlink="http://www.w3.org/1999/xlink" width="12px" height="12px" xmlns="http://www.w3.org/2000/svg">
  <g transform="matrix(1 0 0 1 -666 -455 )">
    <path d="M 11.8143646408839 10.846408839779  L 6.95469613259672 5.98674033149173  L 11.8143646408839 1.12707182320443  C 12.0596685082872 0.881767955801095  12.0596685082872 0.477348066298362  11.8143646408839 0.232044198895025  L 11.7878453038675 0.205524861878445  C 11.542541436464 -0.0397790055248493  11.1381215469613 -0.0397790055248493  10.892817679558 0.205524861878445  L 6.03314917127068 5.0718232044199  L 1.17348066298337 0.205524861878445  C 0.928176795580157 -0.0397790055248493  0.523756906077324 -0.0397790055248493  0.278453038674002 0.205524861878445  L 0.251933701657435 0.232044198895025  C 0 0.477348066298362  0 0.881767955801095  0.251933701657435 1.12707182320443  L 5.11160220994475 5.98674033149173  L 0.251933701657435 10.846408839779  C 0.00662983425411312 11.0917127071823  0.00662983425411312 11.4961325966851  0.251933701657435 11.7414364640884  L 0.278453038674002 11.767955801105  C 0.523756906077324 12.0132596685083  0.928176795580157 12.0132596685083  1.17348066298337 11.767955801105  L 6.03314917127068 6.90828729281768  L 10.892817679558 11.767955801105  C 11.1381215469613 12.0132596685083  11.542541436464 12.0132596685083  11.7878453038675 11.767955801105  L 11.8143646408839 11.7414364640884  C 12.0596685082872 11.4961325966851  12.0596685082872 11.0917127071823  11.8143646408839 10.846408839779  Z " fill-rule="nonzero" fill="#9a9a9a" stroke="none" transform="matrix(1 0 0 1 666 455 )" />
  </g>
</svg>