<?xml version="1.0" encoding="utf-8"?>
<svg version="1.1" xmlns:xlink="http://www.w3.org/1999/xlink" width="54px" height="24px" xmlns="http://www.w3.org/2000/svg">
  <defs>
    <mask fill="white" id="clip105">
      <path d="M 0 16.6666666666667  L 0 3.33333333333333  C 0 1.4666666666667  0.785714285714302 0  1.78571428571429 0  L 27.2420634920635 0  L 48.2142857142857 0  C 49.2142857142857 0  50 1.4666666666667  50 3.33333333333333  L 50 16.6666666666667  C 50 18.5333333333333  49.2142857142857 20  48.2142857142857 20  L 41.6269841269842 20  L 36.6666666666667 20  L 1.78571428571429 20  C 0.785714285714302 20  0 18.5333333333333  0 16.6666666666667  Z " fill-rule="evenodd" />
    </mask>
    <filter x="1233px" y="536px" width="54px" height="24px" filterUnits="userSpaceOnUse" id="filter106">
      <feOffset dx="1" dy="1" in="SourceAlpha" result="shadowOffsetInner" />
      <feGaussianBlur stdDeviation="1" in="shadowOffsetInner" result="shadowGaussian" />
      <feComposite in2="shadowGaussian" operator="atop" in="SourceAlpha" result="shadowComposite" />
      <feColorMatrix type="matrix" values="0 0 0 0 0  0 0 0 0 0  0 0 0 0 0  0 0 0 0.349019607843137 0  " in="shadowComposite" />
    </filter>
    <g id="widget107">
      <path d="M 0 16.6666666666667  L 0 3.33333333333333  C 0 1.4666666666667  0.785714285714302 0  1.78571428571429 0  L 27.2420634920635 0  L 48.2142857142857 0  C 49.2142857142857 0  50 1.4666666666667  50 3.33333333333333  L 50 16.6666666666667  C 50 18.5333333333333  49.2142857142857 20  48.2142857142857 20  L 41.6269841269842 20  L 36.6666666666667 20  L 1.78571428571429 20  C 0.785714285714302 20  0 18.5333333333333  0 16.6666666666667  Z " fill-rule="nonzero" fill="#ffffff" stroke="none" transform="matrix(1 0 0 1 1234 537 )" />
      <path d="M 0 16.6666666666667  L 0 3.33333333333333  C 0 1.4666666666667  0.785714285714302 0  1.78571428571429 0  L 27.2420634920635 0  L 48.2142857142857 0  C 49.2142857142857 0  50 1.4666666666667  50 3.33333333333333  L 50 16.6666666666667  C 50 18.5333333333333  49.2142857142857 20  48.2142857142857 20  L 41.6269841269842 20  L 36.6666666666667 20  L 1.78571428571429 20  C 0.785714285714302 20  0 18.5333333333333  0 16.6666666666667  Z " stroke-width="2" stroke="#eeeeee" fill="none" transform="matrix(1 0 0 1 1234 537 )" mask="url(#clip105)" />
    </g>
  </defs>
  <g transform="matrix(1 0 0 1 -1233 -536 )">
    <use xlink:href="#widget107" filter="url(#filter106)" />
    <use xlink:href="#widget107" />
  </g>
</svg>