<?xml version="1.0" encoding="utf-8"?>
<svg version="1.1" xmlns:xlink="http://www.w3.org/1999/xlink" width="12px" height="13px" xmlns="http://www.w3.org/2000/svg">
  <g transform="matrix(1 0 0 1 -1367 -546 )">
    <path d="M 11.8143646408839 11.7502762430939  L 6.95469613259672 6.48563535911604  L 11.8143646408839 1.22099447513813  C 12.0596685082872 0.95524861878452  12.0596685082872 0.517127071823225  11.8143646408839 0.25138121546961  L 11.7878453038675 0.222651933701648  C 11.542541436464 -0.04309392265192  11.1381215469613 -0.04309392265192  10.892817679558 0.222651933701648  L 6.03314917127068 5.49447513812156  L 1.17348066298337 0.222651933701648  C 0.928176795580157 -0.04309392265192  0.523756906077324 -0.04309392265192  0.278453038674002 0.222651933701648  L 0.251933701657435 0.25138121546961  C 0 0.517127071823225  0 0.95524861878452  0.251933701657435 1.22099447513813  L 5.11160220994475 6.48563535911604  L 0.251933701657435 11.7502762430939  C 0.00662983425411312 12.0160220994475  0.00662983425411312 12.4541436464089  0.251933701657435 12.7198895027624  L 0.278453038674002 12.7486187845304  C 0.523756906077324 13.014364640884  0.928176795580157 13.014364640884  1.17348066298337 12.7486187845304  L 6.03314917127068 7.48397790055248  L 10.892817679558 12.7486187845304  C 11.1381215469613 13.014364640884  11.542541436464 13.014364640884  11.7878453038675 12.7486187845304  L 11.8143646408839 12.7198895027624  C 12.0596685082872 12.4541436464089  12.0596685082872 12.0160220994475  11.8143646408839 11.7502762430939  Z " fill-rule="nonzero" fill="#9a9a9a" stroke="none" transform="matrix(1 0 0 1 1367 546 )" />
  </g>
</svg>