<?xml version="1.0" encoding="utf-8"?>
<svg version="1.1" xmlns:xlink="http://www.w3.org/1999/xlink" width="12px" height="11px" xmlns="http://www.w3.org/2000/svg">
  <g transform="matrix(1 0 0 1 -1264 -500 )">
    <path d="M 11.8143646408839 9.94254143646407  L 6.95469613259672 5.48784530386742  L 11.8143646408839 1.03314917127073  C 12.0596685082872 0.808287292817671  12.0596685082872 0.437569060773498  11.8143646408839 0.21270718232044  L 11.7878453038675 0.188397790055241  C 11.542541436464 -0.0364640883977785  11.1381215469613 -0.0364640883977785  10.892817679558 0.188397790055241  L 6.03314917127068 4.64917127071824  L 1.17348066298337 0.188397790055241  C 0.928176795580157 -0.0364640883977785  0.523756906077324 -0.0364640883977785  0.278453038674002 0.188397790055241  L 0.251933701657435 0.21270718232044  C 0 0.437569060773498  0 0.808287292817671  0.251933701657435 1.03314917127073  L 5.11160220994475 5.48784530386742  L 0.251933701657435 9.94254143646407  C 0.00662983425411312 10.1674033149171  0.00662983425411312 10.5381215469613  0.251933701657435 10.7629834254144  L 0.278453038674002 10.7872928176796  C 0.523756906077324 11.0121546961326  0.928176795580157 11.0121546961326  1.17348066298337 10.7872928176796  L 6.03314917127068 6.33259668508287  L 10.892817679558 10.7872928176796  C 11.1381215469613 11.0121546961326  11.542541436464 11.0121546961326  11.7878453038675 10.7872928176796  L 11.8143646408839 10.7629834254144  C 12.0596685082872 10.5381215469613  12.0596685082872 10.1674033149171  11.8143646408839 9.94254143646407  Z " fill-rule="nonzero" fill="#9a9a9a" stroke="none" transform="matrix(1 0 0 1 1264 500 )" />
  </g>
</svg>