<?xml version="1.0" encoding="utf-8"?>
<svg version="1.1" xmlns:xlink="http://www.w3.org/1999/xlink" width="14px" height="14px" xmlns="http://www.w3.org/2000/svg">
  <g transform="matrix(1 0 0 1 -285 -143 )">
    <path d="M 6.14182692307692 8.01420454545453  C 6.35496794871796 8.26609848484847  6.46153846153847 8.56439393939397  6.46153846153847 8.90909090909088  L 6.46153846153847 12.7272727272727  C 6.46153846153847 13.0719696969697  6.35496794871796 13.3702651515152  6.14182692307692 13.6221590909091  C 5.9286858974359 13.874053030303  5.67628205128205 14  5.38461538461539 14  L 1.07692307692308 14  C 0.785256410256409 14  0.532852564102562 13.874053030303  0.319711538461533 13.6221590909091  C 0.106570512820518 13.3702651515152  0 13.0719696969697  0 12.7272727272727  L 0 8.90909090909088  C 0 8.56439393939397  0.106570512820518 8.26609848484847  0.319711538461533 8.01420454545453  C 0.532852564102562 7.76231060606062  0.785256410256409 7.63636363636363  1.07692307692308 7.63636363636363  L 5.38461538461539 7.63636363636363  C 5.67628205128205 7.63636363636363  5.9286858974359 7.76231060606062  6.14182692307692 8.01420454545453  Z M 6.14182692307692 0.377840909090878  C 6.35496794871796 0.629734848484844  6.46153846153847 0.928030303030312  6.46153846153847 1.27272727272728  L 6.46153846153847 5.09090909090912  C 6.46153846153847 5.43560606060603  6.35496794871796 5.73390151515153  6.14182692307692 5.98579545454547  C 5.9286858974359 6.23768939393938  5.67628205128205 6.36363636363637  5.38461538461539 6.36363636363637  L 1.07692307692308 6.36363636363637  C 0.785256410256409 6.36363636363637  0.532852564102562 6.23768939393938  0.319711538461533 5.98579545454547  C 0.106570512820518 5.73390151515153  0 5.43560606060603  0 5.09090909090912  L 0 1.27272727272728  C 0 0.928030303030312  0.106570512820518 0.629734848484844  0.319711538461533 0.377840909090878  C 0.532852564102562 0.125946969696969  0.785256410256409 0  1.07692307692308 0  L 5.38461538461539 0  C 5.67628205128205 0  5.9286858974359 0.125946969696969  6.14182692307692 0.377840909090878  Z M 13.6802884615385 8.01420454545453  C 13.8934294871795 8.26609848484847  14 8.56439393939397  14 8.90909090909088  L 14 12.7272727272727  C 14 13.0719696969697  13.8934294871795 13.3702651515152  13.6802884615385 13.6221590909091  C 13.4671474358974 13.874053030303  13.2147435897436 14  12.9230769230769 14  L 8.61538461538461 14  C 8.32371794871796 14  8.0713141025641 13.874053030303  7.85817307692308 13.6221590909091  C 7.64503205128204 13.3702651515152  7.53846153846153 13.0719696969697  7.53846153846153 12.7272727272727  L 7.53846153846153 8.90909090909088  C 7.53846153846153 8.56439393939397  7.64503205128204 8.26609848484847  7.85817307692308 8.01420454545453  C 8.0713141025641 7.76231060606062  8.32371794871796 7.63636363636363  8.61538461538461 7.63636363636363  L 12.9230769230769 7.63636363636363  C 13.2147435897436 7.63636363636363  13.4671474358974 7.76231060606062  13.6802884615385 8.01420454545453  Z M 13.6802884615385 0.377840909090878  C 13.8934294871795 0.629734848484844  14 0.928030303030312  14 1.27272727272728  L 14 5.09090909090912  C 14 5.43560606060603  13.8934294871795 5.73390151515153  13.6802884615385 5.98579545454547  C 13.4671474358974 6.23768939393938  13.2147435897436 6.36363636363637  12.9230769230769 6.36363636363637  L 8.61538461538461 6.36363636363637  C 8.32371794871796 6.36363636363637  8.0713141025641 6.23768939393938  7.85817307692308 5.98579545454547  C 7.64503205128204 5.73390151515153  7.53846153846153 5.43560606060603  7.53846153846153 5.09090909090912  L 7.53846153846153 1.27272727272728  C 7.53846153846153 0.928030303030312  7.64503205128204 0.629734848484844  7.85817307692308 0.377840909090878  C 8.0713141025641 0.125946969696969  8.32371794871796 0  8.61538461538461 0  L 12.9230769230769 0  C 13.2147435897436 0  13.4671474358974 0.125946969696969  13.6802884615385 0.377840909090878  Z " fill-rule="nonzero" fill="#ffffff" stroke="none" transform="matrix(1 0 0 1 285 143 )" />
  </g>
</svg>