<?xml version="1.0" encoding="utf-8"?>
<svg version="1.1" xmlns:xlink="http://www.w3.org/1999/xlink" width="48px" height="48px" xmlns="http://www.w3.org/2000/svg">
  <g transform="matrix(1 0 0 1 -140 -35 )">
    <path d="M 48 24  C 48 10.707692296875  37.292307703125 0  24 0  C 10.707692296875 0  0 10.707692296875  0 24  C 0 37.292307703125  10.707692296875 48  24 48  C 37.292307703125 48  48 37.292307703125  48 24  Z M 36 16.430769234375  C 36.9230769375 17.169230765625  36.9230769375 18.646153828125  36 19.38461540625  L 23.26153846875 32.1230769375  C 22.892307703125 32.492307703125  22.33846153125 32.676923109375  21.78461540625 32.6769230625  C 21.230769234375 32.6769230625  20.676923109375 32.49230765625  20.307692296875 32.1230769375  L 12.369230765625 24.18461540625  C 11.630769234375 23.446153875  11.630769234375 21.9692308125  12.369230765625 21.230769234375  C 13.107692296875 20.492307703125  14.584615359375 20.492307703125  15.3230769375 21.230769234375  L 21.78461540625 27.692307703125  L 33.046153828125 16.430769234375  C 33.784615359375 15.692307703125  35.261538421875 15.692307703125  36 16.430769234375  Z " fill-rule="nonzero" fill="#069afe" stroke="none" transform="matrix(1 0 0 1 140 35 )" />
  </g>
</svg>