<?xml version="1.0" encoding="utf-8"?>
<svg version="1.1" xmlns:xlink="http://www.w3.org/1999/xlink" width="90px" height="90px" xmlns="http://www.w3.org/2000/svg">
  <g transform="matrix(1 0 0 1 -440 -220 )">
    <path d="M 90 45  C 90 20.1471862576143  69.8528137423857 0  45 0  C 20.1471862576143 0  0 20.1471862576143  0 45  C 0 69.8528137423857  20.1471862576143 90  45 90  C 69.8528137423857 90  90 69.8528137423857  90 45  Z M 71.250029296875 73  L 18.7499707031249 73  C 18.7499707031249 58.6275091367245  30.502509136724 46.8749707031251  45 46.8749707031251  C 36.7157125725784 46.8749707031251  29.9999707033828 40.1592288339291  29.9999707033828 31.8749414062499  C 29.9999707033828 23.5906539785708  36.7157125725784 16.874912109375  45.0000000002578 16.874912109375  C 53.2842874279365 16.874912109375  60.0000292971322 23.5906539785708  60.0000292971322 31.8749414062499  C 59.9999807564238 40.1592824011093  53.2842531043766 46.8749707032672  45 46.8749707031251  C 59.497490863276 46.8749707031251  71.250029296875 58.6275091367245  71.250029296875 73.125  C 71.250029296875 73.125  71.250029296875 73.125  71.250029296875 73  Z " fill-rule="nonzero" fill="#cccccc" stroke="none" transform="matrix(1 0 0 1 440 220 )" />
  </g>
</svg>