<?xml version="1.0" encoding="utf-8"?>
<svg version="1.1" xmlns:xlink="http://www.w3.org/1999/xlink" width="10px" height="8px" xmlns="http://www.w3.org/2000/svg">
  <g transform="matrix(1 0 0 1 -2 -3 )">
    <path d="M 3.95490564657996 7.99815057303493  L 3.91763323027919 7.99815057303493  C 3.76012724000509 7.99815057303493  3.60863292558577 7.9370195353543  3.49441102746709 7.82598561063134  L 0.234878646673337 4.67212306524959  C -0.00919551978677191 4.43633191870543  -0.0176118773588314 4.04459424488482  0.215641274187533 3.79757495613319  C 0.448894425734011 3.55055566738156  0.837248885837425 3.54307022800202  1.08132306042273 3.77886136611534  L 3.86473046000594 6.47236976061629  L 8.9133385226022 0.273183464977706  C 9.12855663033361 0.00994573266797261  9.51450642497025 -0.0287290121667638  9.77541329844928 0.188348561221233  C 10.0363201719284 0.405426126178327  10.0735925801039 0.794668653539134  9.8595768091684 1.05915395907874  L 4.39135354602297 7.77358757712921  C 4.28314332375919 7.90707780312891  4.12443499668905 7.98816999562649  3.95490564657996 7.99815057303493  Z " fill-rule="nonzero" fill="#ffffff" stroke="none" transform="matrix(1 0 0 1 2 3 )" />
  </g>
</svg>