<?xml version="1.0" encoding="utf-8"?>
<svg version="1.1" xmlns:xlink="http://www.w3.org/1999/xlink" width="18px" height="18px" xmlns="http://www.w3.org/2000/svg">
  <g transform="matrix(1 0 0 1 -275 -80 )">
    <path d="M 7.76906185413702 13.6724752441405  C 10.8187714200107 13.6724752441405  13.2871478626598 11.1325563920454  13.2871478626598 8.00235139826009  C 13.2871478626598 4.86321382057895  10.8187714200107 2.32327453391326  7.76906185413702 2.32327453391326  C 4.71935228826345 2.32327453391326  2.25097584561433 4.86321384055395  2.25097584561433 8.00235139826009  C 2.25097584561433 11.1325563920454  4.71935228826345 13.6724752441405  7.76906185413702 13.6724752441405  Z M 17.6157290039063 17.6254792103159  C 17.1775419833097 18.0637070800781  16.4799422274503 18.0637070800781  16.0417143576882 17.6254791903409  L 12.6789965531783 14.1733129394531  L 12.6521579323508 14.1375417347301  C 11.3195886807529 15.2554633234197  9.62033396883879 15.9262244584518  7.76904141956675 15.9262244584518  C 3.50302923473015 15.9262244584518  0.0508629838423644 12.3756771772905  0.0508629838423644 8.00235139826009  C 0.0508629838423644 3.62007258078825  3.50302923473015 0.0695457541726228  7.76904141956675 0.0695457541726228  C 12.0261005859375 0.0695457541726228  15.4872198552912 3.62009303533387  15.4872198552912 8.00235139826009  C 15.4872198552912 9.65688190696028  14.9863821599787 11.1951457830257  14.1456975852273 12.4651256436434  L 14.2530111993964 12.5545536554509  L 17.6157290039063 16.0067199063387  C 18.0450038552024 16.4538803599964  18.0450038552024 17.1782983021128  17.6157290039063 17.6254792103159  Z " fill-rule="nonzero" fill="#c3c3c3" stroke="none" transform="matrix(1 0 0 1 275 80 )" />
  </g>
</svg>