<?xml version="1.0" encoding="utf-8"?>
<svg version="1.1" xmlns:xlink="http://www.w3.org/1999/xlink" width="12px" height="12px" xmlns="http://www.w3.org/2000/svg">
  <g transform="matrix(1 0 0 1 -20 -20 )">
    <path d="M 8.828125 8.125  C 8.92708333333331 8.02604166666667  8.9765625 7.90625  8.9765625 7.765625  C 8.9765625 7.63020833333334  8.92708333333331 7.51302083333334  8.828125 7.4140625  L 7.4140625 6  L 8.828125 4.5859375  C 8.92708333333331 4.48697916666666  8.9765625 4.36979166666666  8.9765625 4.234375  C 8.9765625 4.09375  8.92708333333331 3.97395833333333  8.828125 3.875  L 8.125 3.171875  C 8.02604166666669 3.07291666666666  7.90625 3.0234375  7.765625 3.0234375  C 7.63020833333331 3.0234375  7.51302083333331 3.07291666666666  7.4140625 3.171875  L 6 4.5859375  L 4.5859375 3.171875  C 4.48697916666669 3.07291666666666  4.36979166666669 3.0234375  4.234375 3.0234375  C 4.09375 3.0234375  3.97395833333331 3.07291666666666  3.875 3.171875  L 3.171875 3.875  C 3.07291666666669 3.97395833333333  3.0234375 4.09375  3.0234375 4.234375  C 3.0234375 4.36979166666666  3.07291666666669 4.48697916666666  3.171875 4.5859375  L 4.5859375 6  L 3.171875 7.4140625  C 3.07291666666669 7.51302083333334  3.0234375 7.63020833333334  3.0234375 7.765625  C 3.0234375 7.90625  3.07291666666669 8.02604166666667  3.171875 8.125  L 3.875 8.828125  C 3.97395833333331 8.92708333333334  4.09375 8.9765625  4.234375 8.9765625  C 4.36979166666669 8.9765625  4.48697916666669 8.92708333333334  4.5859375 8.828125  L 6 7.4140625  L 7.4140625 8.828125  C 7.51302083333331 8.92708333333334  7.63020833333331 8.9765625  7.765625 8.9765625  C 7.90625 8.9765625  8.02604166666669 8.92708333333334  8.125 8.828125  L 8.828125 8.125  Z M 11.1953125 2.98828125  C 11.7317708333333 3.90755208333333  12 4.91145833333333  12 6  C 12 7.08854166666666  11.7317708333333 8.09244791666666  11.1953125 9.01171875  C 10.6588541666667 9.93098958333333  9.93098958333331 10.6588541666667  9.01171875 11.1953125  C 8.09244791666669 11.7317708333333  7.08854166666669 12  6 12  C 4.91145833333331 12  3.90755208333331 11.7317708333333  2.98828125 11.1953125  C 2.06901041666669 10.6588541666667  1.34114583333331 9.93098958333333  0.8046875 9.01171875  C 0.268229166666686 8.09244791666666  0 7.08854166666666  0 6  C 0 4.91145833333333  0.268229166666686 3.90755208333333  0.8046875 2.98828125  C 1.34114583333331 2.06901041666667  2.06901041666669 1.34114583333333  2.98828125 0.8046875  C 3.90755208333331 0.268229166666664  4.91145833333331 0  6 0  C 7.08854166666669 0  8.09244791666669 0.268229166666664  9.01171875 0.8046875  C 9.93098958333331 1.34114583333333  10.6588541666667 2.06901041666667  11.1953125 2.98828125  Z " fill-rule="nonzero" fill="#ff2626" stroke="none" transform="matrix(1 0 0 1 20 20 )" />
  </g>
</svg>