<?xml version="1.0" encoding="utf-8"?>
<svg version="1.1" xmlns:xlink="http://www.w3.org/1999/xlink" width="33px" height="24px" xmlns="http://www.w3.org/2000/svg">
  <g transform="matrix(1 0 0 1 -350 -679 )">
    <path d="M 8.94287109375 6.68345323741005  C 9.21142578124996 6.44844124700239  9.345703125 6.13429256594725  9.345703125 5.74100719424462  C 9.345703125 5.34772182254198  9.21142578124996 5.03117505995203  8.94287109375 4.79136690647476  C 8.67431640625004 4.55155875299761  8.31982421875004 4.43165467625897  7.87939453125 4.43165467625897  C 7.41748046875004 4.43165467625897  7.00927734375 4.55395683453241  6.65478515625 4.79856115107918  C 6.30029296875 5.04316546762595  6.123046875 5.3573141486811  6.123046875 5.74100719424462  C 6.123046875 6.11510791366902  6.30029296875 6.42446043165467  6.65478515625 6.66906474820144  C 7.00927734375 6.91366906474821  7.41748046875004 7.03597122302153  7.87939453125 7.03597122302153  C 8.31982421875004 7.03597122302153  8.67431640625004 6.91846522781771  8.94287109375 6.68345323741005  Z M 20.906982421875 13.7697841726618  C 21.180908203125 13.5587529976019  21.31787109375 13.3141486810551  21.31787109375 13.0359712230215  C 21.31787109375 12.7673860911272  21.180908203125 12.5275779376499  20.906982421875 12.31654676259  C 20.633056640625 12.10551558753  20.28125 12  19.8515625 12  C 19.5615234375 12  19.295654296875 12.1079136690647  19.053955078125 12.3237410071943  C 18.812255859375 12.5395683453237  18.69140625 12.7769784172662  18.69140625 13.0359712230215  C 18.69140625 13.304556354916  18.812255859375 13.5467625899281  19.053955078125 13.7625899280575  C 19.295654296875 13.9784172661871  19.5615234375 14.0863309352518  19.8515625 14.0863309352518  C 20.28125 14.0863309352518  20.633056640625 13.9808153477218  20.906982421875 13.7697841726618  Z M 17.120361328125 6.68345323741005  C 17.383544921875 6.44844124700239  17.51513671875 6.13429256594725  17.51513671875 5.74100719424462  C 17.51513671875 5.34772182254198  17.383544921875 5.03117505995203  17.120361328125 4.79136690647476  C 16.857177734375 4.55155875299761  16.50537109375 4.43165467625897  16.06494140625 4.43165467625897  C 15.60302734375 4.43165467625897  15.19482421875 4.55395683453241  14.84033203125 4.79856115107918  C 14.48583984375 5.04316546762595  14.30859375 5.3573141486811  14.30859375 5.74100719424462  C 14.30859375 6.11510791366902  14.48583984375 6.42446043165467  14.84033203125 6.66906474820144  C 15.19482421875 6.91366906474821  15.60302734375 7.03597122302153  16.06494140625 7.03597122302153  C 16.50537109375 7.03597122302153  16.857177734375 6.91846522781771  17.120361328125 6.68345323741005  Z M 27.328125 13.7697841726618  C 27.607421875 13.5587529976019  27.7470703125 13.3141486810551  27.7470703125 13.0359712230215  C 27.7470703125 12.7673860911272  27.607421875 12.5275779376499  27.328125 12.31654676259  C 27.048828125 12.10551558753  26.69970703125 12  26.28076171875 12  C 25.99072265625 12  25.724853515625 12.1079136690647  25.483154296875 12.3237410071943  C 25.241455078125 12.5395683453237  25.12060546875 12.7769784172662  25.12060546875 13.0359712230215  C 25.12060546875 13.304556354916  25.241455078125 13.5467625899281  25.483154296875 13.7625899280575  C 25.724853515625 13.9784172661871  25.99072265625 14.0863309352518  26.28076171875 14.0863309352518  C 26.69970703125 14.0863309352518  27.048828125 13.9808153477218  27.328125 13.7697841726618  Z M 21.261474609375 3.57553956834533  C 22.394775390625 4.69304556354916  23.1279296875 5.94244604316543  23.4609375 7.32374100719426  C 23.1279296875 7.28537170263792  22.751953125 7.26618705035969  22.3330078125 7.26618705035969  C 20.517578125 7.26618705035969  18.84716796875 7.6354916067146  17.32177734375 8.3741007194244  C 15.79638671875 9.11270983213433  14.595947265625 10.1127098321343  13.720458984375 11.3741007194244  C 12.844970703125 12.6354916067146  12.4072265625 14.0143884892086  12.4072265625 15.5107913669065  C 12.4072265625 16.2589928057554  12.53076171875 16.9880095923261  12.77783203125 17.6978417266187  C 12.40185546875 17.726618705036  12.03662109375 17.7410071942446  11.68212890625 17.7410071942446  C 11.40283203125 17.7410071942446  11.13427734375 17.7338129496403  10.87646484375 17.7194244604317  C 10.61865234375 17.705035971223  10.3232421875 17.6738609112709  9.990234375 17.6258992805756  C 9.65722656250004 17.5779376498801  9.418212890625 17.5443645083933  9.273193359375 17.5251798561151  C 9.128173828125 17.505995203837  8.83544921875004 17.4556354916067  8.39501953125 17.3741007194244  C 7.95458984374996 17.2925659472422  7.68603515625 17.242206235012  7.58935546875 17.2230215827339  L 3.5126953125 19.0503597122303  L 4.6728515625 15.9136690647482  C 1.55761718749996 13.9664268585132  0 11.6163069544365  0 8.86330935251794  C 0 7.24220623501196  0.523681640625 5.75059952038373  1.571044921875 4.38848920863313  C 2.618408203125 3.02637889688253  4.036376953125 1.95443645083935  5.824951171875 1.17266187050359  C 7.613525390625 0.390887290167825  9.56591796874996 0  11.68212890625 0  C 13.57275390625 0  15.358642578125 0.316546762589951  17.039794921875 0.949640287769739  C 18.720947265625 1.58273381294964  20.128173828125 2.45803357314151  21.261474609375 3.57553956834533  Z M 31.622314453125 11.6043165467626  C 32.540771484375 12.7697841726618  33 14.0335731414868  33 15.3956834532374  C 33 16.5179856115108  32.632080078125 17.5899280575539  31.896240234375 18.6115107913669  C 31.160400390625 19.6330935251799  30.1640625 20.5611510791367  28.9072265625 21.3956834532374  L 29.79345703125 24  L 26.5869140625 22.431654676259  C 24.9755859375 22.7865707434053  23.8046875 22.9640287769785  23.07421875 22.9640287769785  C 21.2587890625 22.9640287769785  19.58837890625 22.6258992805756  18.06298828125 21.9496402877697  C 16.53759765625 21.273381294964  15.337158203125 20.3549160671463  14.461669921875 19.1942446043165  C 13.586181640625 18.0335731414868  13.1484375 16.7673860911272  13.1484375 15.3956834532374  C 13.1484375 14.0239808153477  13.586181640625 12.757793764988  14.461669921875 11.5971223021583  C 15.337158203125 10.4364508393286  16.53759765625 9.51798561151077  18.06298828125 8.84172661870502  C 19.58837890625 8.16546762589928  21.2587890625 7.82733812949641  23.07421875 7.82733812949641  C 24.8037109375 7.82733812949641  26.43115234375 8.16546762589928  27.95654296875 8.84172661870502  C 29.48193359375 9.51798561151077  30.703857421875 10.4388489208633  31.622314453125 11.6043165467626  Z " fill-rule="nonzero" fill="#529efd" stroke="none" transform="matrix(1 0 0 1 350 679 )" />
  </g>
</svg>