<?xml version="1.0" encoding="utf-8"?>
<svg version="1.1" xmlns:xlink="http://www.w3.org/1999/xlink" width="27px" height="24px" xmlns="http://www.w3.org/2000/svg">
  <g transform="matrix(1 0 0 1 -423 -678 )">
    <path d="M 0 17.0357142857143  C 0 14.5803571428572  1.29157175398629 12.5  3.87471526195901 10.7946428571429  C 3.79271070615028 10.625  3.75170842824605 10.3928571428571  3.75170842824605 10.0982142857143  C 3.75170842824605 9.91964285714289  3.80808656036449 9.70089285714278  3.92084282460136 9.44196428571433  C 4.03359908883823 9.18303571428567  4.15660592255119 8.98214285714289  4.28986332574037 8.83928571428567  C 4.27961275626428 8.64285714285711  4.31805239179959 8.40625  4.4051822323463 8.12946428571433  C 4.49231207289288 7.85267857142856  4.6076309794988 7.66071428571433  4.75113895216395 7.55357142857144  C 4.75113895216395 6.3125  5.2252277904328 5.02455357142856  6.17340546697037 3.68973214285711  C 7.12158314350794 2.35491071428578  8.23633257403189 1.41964285714289  9.51765375854209 0.883928571428555  C 10.9424829157176 0.29464285714289  12.6030751708429 0  14.499430523918 0  C 15.862756264237 0  17.2260820045558 0.245535714285779  18.5894077448747 0.73660714285711  C 19.0916856492028 0.92410714285711  19.5529612756265 1.13839285714289  19.9732346241458 1.37946428571433  C 20.3935079726651 1.62053571428567  20.7574031890661 1.87053571428567  21.0649202733485 2.12946428571433  C 21.372437357631 2.38839285714278  21.6543280182233 2.69196428571433  21.9105922551253 3.04017857142856  C 22.1668564920273 3.38839285714289  22.3821184510251 3.71875  22.5563781321184 4.03125  C 22.7306378132118 4.34375  22.8972095671982 4.72098214285711  23.0560933940774 5.16294642857144  C 23.2149772209568 5.60491071428567  23.3456719817768 6.00446428571433  23.4481776765375 6.36160714285711  C 23.5506833712984 6.71875  23.6634396355353 7.15625  23.7864464692483 7.67410714285711  L 23.8018223234625 7.74107142857144  C 24.365603644647 8.48214285714278  24.6474943052391 9.15178571428578  24.6474943052391 9.75  C 24.6474943052391 9.875  24.6013667425968 10.0535714285714  24.5091116173121 10.2857142857143  C 24.4168564920273 10.5178571428571  24.3707289293849 10.6875  24.3707289293849 10.7946428571429  C 24.3707289293849 10.8035714285714  24.378416856492 10.8191964285714  24.3937927107062 10.8415178571429  C 24.4091685649202 10.8638392857142  24.4271070615034 10.8861607142858  24.4476082004556 10.9084821428571  C 24.4681093394077 10.9308035714286  24.4783599088838 10.9464285714286  24.4783599088838 10.9553571428571  C 25.2676537585422 11.9732142857143  25.885250569476 12.9308035714286  26.3311503416857 13.828125  C 26.7770501138952 14.7254464285714  27 15.65625  27 16.6205357142857  C 27 17.0044642857142  26.9000569476081 17.4508928571429  26.7001708428246 17.9598214285714  C 26.500284738041 18.46875  26.2158314350798 18.7232142857143  25.8468109339407 18.7232142857143  C 25.7545558086561 18.7232142857143  25.6546127562642 18.6897321428571  25.5469817767654 18.6227678571429  C 25.4393507972665 18.5558035714286  25.3419703872437 18.4776785714286  25.254840546697 18.3883928571429  C 25.1677107061503 18.2991071428571  25.0703302961275 18.1830357142858  24.9626993166286 18.0401785714286  C 24.8550683371299 17.8973214285714  24.7730637813211 17.7790178571429  24.7166856492027 17.6852678571429  C 24.6603075170843 17.5915178571429  24.5911161731207 17.4754464285714  24.5091116173121 17.3370535714286  C 24.4271070615034 17.1986607142858  24.380979498861 17.1205357142858  24.3707289293849 17.1026785714286  C 24.3604783599088 17.09375  24.3451025056948 17.0892857142857  24.3246013667426 17.0892857142857  L 24.247722095672 17.1428571428571  C 23.6429384965831 18.5178571428572  22.9664009111618 19.5133928571429  22.2181093394078 20.1294642857143  C 22.4231207289293 20.3080357142858  22.7383257403188 20.4799107142858  23.1637243735763 20.6450892857143  C 23.5891230068337 20.8102678571428  23.9427676537586 20.9955357142858  24.2246583143507 21.2008928571429  C 24.506548974943 21.40625  24.6884965831435 21.6964285714286  24.7705011389522 22.0714285714286  C 24.75 22.1071428571429  24.7294988610479 22.1785714285714  24.7089977220957 22.2857142857143  C 24.6884965831435 22.3928571428571  24.6526195899772 22.4732142857143  24.6013667425968 22.5267857142857  C 23.9453302961276 23.3928571428572  22.3974943052392 23.8258928571429  19.9578587699316 23.8258928571429  C 19.4145785876993 23.8258928571429  18.8482346241458 23.7857142857143  18.2588268792711 23.7053571428571  C 17.6694191343963 23.625  17.1671412300684 23.5357142857142  16.751993166287 23.4375  C 16.3368451025057 23.3392857142858  15.8012528473804 23.2053571428572  15.1452164009111 23.0357142857143  C 14.9914578587699 22.9910714285714  14.873576309795 22.9598214285714  14.7915717539863 22.9419642857143  C 14.6480637813211 22.90625  14.4123006833713 22.8861607142858  14.0842824601367 22.8816964285714  C 13.756264236902 22.8772321428572  13.5512528473805 22.8705357142858  13.4692482915717 22.8616071428571  C 13.0489749430524 23.2633928571429  12.3955011389521 23.5535714285714  11.5088268792711 23.7321428571429  C 10.62215261959 23.9107142857142  9.75854214123004 24  8.91799544419136 24  C 8.55922551252843 24  8.20558086560362 23.9933035714286  7.85706150341692 23.9799107142857  C 7.50854214123008 23.9665178571429  7.03189066059231 23.9263392857143  6.42710706150346 23.859375  C 5.82232346241461 23.7924107142857  5.30466970387247 23.7008928571429  4.87414578587704 23.5848214285714  C 4.44362186788161 23.46875  4.06178815489745 23.2901785714286  3.72864464692481 23.0491071428571  C 3.39550113895218 22.8080357142857  3.2289293849658 22.5223214285714  3.2289293849658 22.1919642857143  C 3.2289293849658 21.8348214285714  3.28018223234626 21.5691964285714  3.38268792710703 21.3950892857143  C 3.48519362186795 21.2209821428571  3.69533029612762 21.0044642857142  4.01309794988604 20.7455357142857  C 4.12585421412305 20.7276785714286  4.33342824601366 20.6696428571428  4.63582004555815 20.5714285714286  C 4.93821184510251 20.4732142857142  5.1919134396356 20.4196428571429  5.39692482915716 20.4107142857143  C 5.43792710706152 20.4107142857143  5.50968109339403 20.4017857142858  5.61218678815494 20.3839285714286  C 5.63268792710712 20.3660714285714  5.64293849658308 20.3482142857142  5.64293849658308 20.3303571428571  L 5.61218678815494 20.2901785714286  C 5.12015945330296 20.1919642857142  4.56662870159457 19.7209821428571  3.95159453302963 18.8772321428571  C 3.33656036446469 18.0334821428571  2.9624145785877 17.3348214285714  2.82915717539864 16.78125  L 2.75227790432803 16.7410714285714  C 2.71127562642366 16.7410714285714  2.64977220956725 16.8303571428572  2.56776765375852 17.0089285714286  C 2.38325740318901 17.375  2.10392938496589 17.7075892857142  1.72978359908889 18.0066964285714  C 1.3556378132119 18.3058035714286  0.958428246013662 18.4732142857142  0.538154897494322 18.5089285714286  L 0.522779043280119 18.5089285714286  C 0.481776765375887 18.5089285714286  0.451025056947614 18.4888392857143  0.430523917995431 18.4486607142857  C 0.410022779043249 18.4084821428571  0.384396355353087 18.3839285714286  0.353644646924814 18.375  C 0.117881548974982 17.8928571428571  0 17.4464285714286  0 17.0357142857143  Z " fill-rule="nonzero" fill="#529efd" stroke="none" transform="matrix(1 0 0 1 423 678 )" />
  </g>
</svg>