<?xml version="1.0" encoding="utf-8"?>
<svg version="1.1" xmlns:xlink="http://www.w3.org/1999/xlink" width="28px" height="23px" xmlns="http://www.w3.org/2000/svg">
  <g transform="matrix(1 0 0 1 -492 -678 )">
    <path d="M 7.46666666666675 8.21428571428578  C 7.46666666666675 9.40364583333337  7.86041666666662 10.4988839285714  8.64791666666662 11.5  C 7.07291666666662 11.5427827380952  5.78472222222221 12.0904017857142  4.78333333333325 13.1428571428572  L 2.82916666666662 13.1428571428572  C 2.03194444444442 13.1428571428572  1.36111111111104 12.9695870535714  0.816666666666752 12.623046875  C 0.272222222222208 12.2765066964286  0 11.76953125  0 11.1021205357142  C 0 8.08165922619048  0.602777777777792 6.57142857142856  1.80833333333325 6.57142857142856  C 1.86666666666662 6.57142857142856  2.078125 6.66127232142856  2.44270833333338 6.84095982142856  C 2.80729166666662 7.02064732142856  3.28125 7.20247395833337  3.86458333333338 7.38643973214278  C 4.44791666666662 7.57040550595241  5.02638888888883 7.66238839285722  5.6 7.66238839285722  C 6.25138888888883 7.66238839285722  6.89791666666662 7.56398809523807  7.53958333333338 7.3671875  C 7.49097222222221 7.68377976190482  7.46666666666675 7.96614583333337  7.46666666666675 8.21428571428578  Z M 24.215625 18.3473772321428  C 24.2496527777778 18.7794828869048  24.2666666666666 19.2222842261905  24.2666666666666 19.67578125  C 24.2666666666666 20.7025669642858  23.9118055555556 21.5132998511905  23.2020833333334 22.1079799107142  C 22.4923611111112 22.7026599702381  21.5493055555556 23  20.3729166666668 23  L 7.62708333333325 23  C 6.45069444444442 23  5.50763888888883 22.7026599702381  4.79791666666662 22.1079799107142  C 4.08819444444442 21.5132998511905  3.73333333333338 20.7025669642858  3.73333333333338 19.67578125  C 3.73333333333338 19.2222842261905  3.75034722222221 18.7794828869048  3.784375 18.3473772321428  C 3.81840277777779 17.915271577381  3.88645833333325 17.4489397321428  3.98854166666675 16.9483816964286  C 4.090625 16.4478236607142  4.21944444444442 15.983630952381  4.375 15.5558035714286  C 4.53055555555558 15.1279761904761  4.73958333333338 14.7108444940476  5.00208333333325 14.3044084821428  C 5.26458333333338 13.8979724702381  5.56597222222221 13.5514322916666  5.90625 13.2647879464286  C 6.24652777777779 12.9781436011905  6.66215277777779 12.749255952381  7.153125 12.578125  C 7.64409722222221 12.406994047619  8.18611111111117 12.3214285714286  8.77916666666675 12.3214285714286  C 8.87638888888883 12.3214285714286  9.08541666666662 12.4134114583334  9.40625 12.5973772321428  C 9.72708333333338 12.7813430059524  10.0819444444444 12.9867001488095  10.4708333333332 13.2134486607142  C 10.8597222222222 13.440197172619  11.3798611111112 13.6455543154761  12.03125 13.8295200892858  C 12.6826388888888 14.0134858630952  13.3388888888888 14.10546875  14 14.10546875  C 14.6611111111112 14.10546875  15.3173611111112 14.0134858630952  15.96875 13.8295200892858  C 16.6201388888888 13.6455543154761  17.1402777777778 13.440197172619  17.5291666666668 13.2134486607142  C 17.9180555555556 12.9867001488095  18.2729166666666 12.7813430059524  18.59375 12.5973772321428  C 18.9145833333334 12.4134114583334  19.1236111111112 12.3214285714286  19.2208333333332 12.3214285714286  C 19.8138888888888 12.3214285714286  20.3559027777778 12.406994047619  20.846875 12.578125  C 21.3378472222222 12.749255952381  21.7534722222222 12.9781436011905  22.09375 13.2647879464286  C 22.4340277777778 13.5514322916666  22.7354166666666 13.8979724702381  22.9979166666668 14.3044084821428  C 23.2604166666666 14.7108444940476  23.4694444444444 15.1279761904761  23.625 15.5558035714286  C 23.7805555555556 15.983630952381  23.909375 16.4478236607142  24.0114583333332 16.9483816964286  C 24.1135416666668 17.4489397321428  24.1815972222222 17.915271577381  24.215625 18.3473772321428  Z M 8.23958333333338 0.96261160714289  C 8.96875 1.60435267857144  9.33333333333338 2.37872023809518  9.33333333333338 3.28571428571433  C 9.33333333333338 4.19270833333337  8.96875 4.96707589285711  8.23958333333338 5.60881696428567  C 7.51041666666662 6.25055803571422  6.63055555555558 6.57142857142856  5.6 6.57142857142856  C 4.56944444444442 6.57142857142856  3.68958333333325 6.25055803571422  2.96041666666662 5.60881696428567  C 2.23125 4.96707589285711  1.86666666666662 4.19270833333337  1.86666666666662 3.28571428571433  C 1.86666666666662 2.37872023809518  2.23125 1.60435267857144  2.96041666666662 0.96261160714289  C 3.68958333333325 0.320870535714334  4.56944444444442 0  5.6 0  C 6.63055555555558 0  7.51041666666662 0.320870535714334  8.23958333333338 0.96261160714289  Z M 17.959375 4.72963169642856  C 19.053125 5.69224330357144  19.6 6.85379464285722  19.6 8.21428571428578  C 19.6 9.57477678571422  19.053125 10.736328125  17.959375 11.6989397321428  C 16.865625 12.6615513392858  15.5458333333334 13.1428571428572  14 13.1428571428572  C 12.4541666666666 13.1428571428572  11.134375 12.6615513392858  10.040625 11.6989397321428  C 8.946875 10.736328125  8.4 9.57477678571422  8.4 8.21428571428578  C 8.4 6.85379464285722  8.946875 5.69224330357144  10.040625 4.72963169642856  C 11.134375 3.76702008928567  12.4541666666666 3.28571428571433  14 3.28571428571433  C 15.5458333333334 3.28571428571433  16.865625 3.76702008928567  17.959375 4.72963169642856  Z M 26.1916666666668 6.57142857142856  C 27.3972222222222 6.57142857142856  28 8.08165922619048  28 11.1021205357142  C 28 11.76953125  27.7277777777778 12.2765066964286  27.1833333333332 12.623046875  C 26.638888888889 12.9695870535714  25.9680555555556 13.1428571428572  25.1708333333334 13.1428571428572  L 23.2166666666668 13.1428571428572  C 22.2152777777778 12.0904017857142  20.9270833333334 11.5427827380952  19.3520833333334 11.5  C 20.1395833333334 10.4988839285714  20.5333333333332 9.40364583333337  20.5333333333332 8.21428571428578  C 20.5333333333332 7.96614583333337  20.5090277777778 7.68377976190482  20.4604166666666 7.3671875  C 21.1020833333334 7.56398809523807  21.7486111111112 7.66238839285722  22.4 7.66238839285722  C 22.9736111111112 7.66238839285722  23.5520833333334 7.57040550595241  24.1354166666666 7.38643973214278  C 24.71875 7.20247395833337  25.1927083333334 7.02064732142856  25.5572916666666 6.84095982142856  C 25.921875 6.66127232142856  26.1333333333334 6.57142857142856  26.1916666666668 6.57142857142856  Z M 25.0395833333334 0.96261160714289  C 25.76875 1.60435267857144  26.1333333333334 2.37872023809518  26.1333333333334 3.28571428571433  C 26.1333333333334 4.19270833333337  25.76875 4.96707589285711  25.0395833333334 5.60881696428567  C 24.3104166666668 6.25055803571422  23.4305555555556 6.57142857142856  22.4 6.57142857142856  C 21.3694444444444 6.57142857142856  20.4895833333334 6.25055803571422  19.7604166666666 5.60881696428567  C 19.03125 4.96707589285711  18.6666666666666 4.19270833333337  18.6666666666666 3.28571428571433  C 18.6666666666666 2.37872023809518  19.03125 1.60435267857144  19.7604166666666 0.96261160714289  C 20.4895833333334 0.320870535714334  21.3694444444444 0  22.4 0  C 23.4305555555556 0  24.3104166666668 0.320870535714334  25.0395833333334 0.96261160714289  Z " fill-rule="nonzero" fill="#cccccc" stroke="none" transform="matrix(1 0 0 1 492 678 )" />
  </g>
</svg>