<?xml version="1.0" encoding="utf-8"?>
<svg version="1.1" xmlns:xlink="http://www.w3.org/1999/xlink" width="17px" height="19px" xmlns="http://www.w3.org/2000/svg">
  <g transform="matrix(1 0 0 1 -1799 -307 )">
    <path d="M 6.07315340909099 7.236328125  C 6.14559659090901 7.310546875  6.18181818181824 7.40538194444446  6.18181818181824 7.52083333333331  L 6.18181818181824 14.6458333333333  C 6.18181818181824 14.7612847222222  6.14559659090901 14.8561197916667  6.07315340909099 14.9303385416667  C 6.00071022727275 15.0045572916667  5.90814393939399 15.0416666666667  5.7954545454545 15.0416666666667  L 5.02272727272725 15.0416666666667  C 4.91003787878799 15.0416666666667  4.81747159090901 15.0045572916667  4.74502840909099 14.9303385416667  C 4.67258522727275 14.8561197916667  4.63636363636374 14.7612847222222  4.63636363636374 14.6458333333333  L 4.63636363636374 7.52083333333331  C 4.63636363636374 7.40538194444446  4.67258522727275 7.310546875  4.74502840909099 7.236328125  C 4.81747159090901 7.162109375  4.91003787878799 7.125  5.02272727272725 7.125  L 5.7954545454545 7.125  C 5.90814393939399 7.125  6.00071022727275 7.162109375  6.07315340909099 7.236328125  Z M 9.1640625 7.236328125  C 9.23650568181824 7.310546875  9.27272727272725 7.40538194444446  9.27272727272725 7.52083333333331  L 9.27272727272725 14.6458333333333  C 9.27272727272725 14.7612847222222  9.23650568181824 14.8561197916667  9.1640625 14.9303385416667  C 9.09161931818176 15.0045572916667  8.999053030303 15.0416666666667  8.88636363636374 15.0416666666667  L 8.11363636363626 15.0416666666667  C 8.000946969697 15.0416666666667  7.90838068181824 15.0045572916667  7.8359375 14.9303385416667  C 7.76349431818176 14.8561197916667  7.72727272727275 14.7612847222222  7.72727272727275 14.6458333333333  L 7.72727272727275 7.52083333333331  C 7.72727272727275 7.40538194444446  7.76349431818176 7.310546875  7.8359375 7.236328125  C 7.90838068181824 7.162109375  8.000946969697 7.125  8.11363636363626 7.125  L 8.88636363636374 7.125  C 8.999053030303 7.125  9.09161931818176 7.162109375  9.1640625 7.236328125  Z M 12.254971590909 7.236328125  C 12.3274147727273 7.310546875  12.3636363636363 7.40538194444446  12.3636363636363 7.52083333333331  L 12.3636363636363 14.6458333333333  C 12.3636363636363 14.7612847222222  12.3274147727273 14.8561197916667  12.254971590909 14.9303385416667  C 12.182528409091 15.0045572916667  12.089962121212 15.0416666666667  11.9772727272727 15.0416666666667  L 11.2045454545455 15.0416666666667  C 11.091856060606 15.0416666666667  10.9992897727273 15.0045572916667  10.926846590909 14.9303385416667  C 10.854403409091 14.8561197916667  10.8181818181818 14.7612847222222  10.8181818181818 14.6458333333333  L 10.8181818181818 7.52083333333331  C 10.8181818181818 7.40538194444446  10.854403409091 7.310546875  10.926846590909 7.236328125  C 10.9992897727273 7.162109375  11.091856060606 7.125  11.2045454545455 7.125  L 11.9772727272727 7.125  C 12.089962121212 7.125  12.182528409091 7.162109375  12.254971590909 7.236328125  Z M 13.8245738636363 16.9775390625  C 13.880918560606 16.8249782986111  13.909090909091 16.6579861111111  14 16.4765625  L 14 5  L 3 5  L 3 16.4765625  C 3.09090909090901 16.6579861111111  3.11908143939399 16.8249782986111  3.17542613636374 16.9775390625  C 3.23177083333326 17.1300998263889  3.29012784090901 17.2414279513889  3.35049715909099 17.3115234375  C 3.41086647727275 17.3816189236111  3.453125 17.4166666666667  3.47727272727275 17.4166666666667  L 13.5227272727273 17.4166666666667  C 13.546875 17.4166666666667  13.5891335227273 17.3816189236111  13.649502840909 17.3115234375  C 13.709872159091 17.2414279513889  13.7682291666667 17.1300998263889  13.8245738636363 16.9775390625  Z M 6.38707386363626 1.71940104166669  L 5.7954545454545 3.16666666666669  L 11.2045454545455 3.16666666666669  L 10.625 1.71940104166669  C 10.5686553030303 1.64518229166669  10.5002367424242 1.59982638888891  10.4197443181818 1.58333333333331  L 6.5923295454545 1.58333333333331  C 6.51183712121201 1.59982638888891  6.44341856060601 1.64518229166669  6.38707386363626 1.71940104166669  Z M 16.8913352272727 3.27799479166669  C 16.963778409091 3.35221354166669  17 3.44704861111109  17 3.5625  L 17 4.35416666666669  C 17 4.46961805555554  16.963778409091 4.564453125  16.8913352272727 4.638671875  C 16.8188920454545 4.712890625  16.7263257575758 4.75  16.6136363636363 4.75  L 15.4545454545455 4.75  L 15.4545454545455 16.4765625  C 15.4545454545455 17.1610243055555  15.2653882575758 17.7527126736111  14.8870738636363 18.2516276041667  C 14.508759469697 18.7505425347222  14.0539772727273 19  13.5227272727273 19  L 3.47727272727275 19  C 2.94602272727275 19  2.491240530303 18.7587890625  2.11292613636374 18.2763671875  C 1.73461174242425 17.7939453125  1.5454545454545 17.2105034722222  1.5454545454545 16.5260416666667  L 1.5454545454545 4.75  L 0.38636363636374 4.75  C 0.273674242424249 4.75  0.181107954545496 4.712890625  0.108664772727252 4.638671875  C 0.0362215909090082 4.564453125  0 4.46961805555554  0 4.35416666666669  L 0 3.5625  C 0 3.44704861111109  0.0362215909090082 3.35221354166669  0.108664772727252 3.27799479166669  C 0.181107954545496 3.20377604166669  0.273674242424249 3.16666666666669  0.38636363636374 3.16666666666669  L 4.1171875 3.16666666666669  L 4.9623579545455 1.10091145833331  C 5.08309659090901 0.795789930555543  5.30042613636374 0.536024305555543  5.61434659090901 0.321614583333314  C 5.9282670454545 0.107204861111086  6.24621212121201 0  6.56818181818176 0  L 10.4318181818182 0  C 10.753787878788 0  11.0717329545455 0.107204861111086  11.385653409091 0.321614583333314  C 11.6995738636363 0.536024305555543  11.916903409091 0.795789930555543  12.0376420454545 1.10091145833331  L 12.8828125 3.16666666666669  L 16.6136363636363 3.16666666666669  C 16.7263257575758 3.16666666666669  16.8188920454545 3.20377604166669  16.8913352272727 3.27799479166669  Z " fill-rule="nonzero" fill="#cccccc" stroke="none" transform="matrix(1 0 0 1 1799 307 )" />
  </g>
</svg>