<?xml version="1.0" encoding="utf-8"?>
<svg version="1.1" xmlns:xlink="http://www.w3.org/1999/xlink" width="20px" height="19px" xmlns="http://www.w3.org/2000/svg">
  <g transform="matrix(1 0 0 1 -1760 -307 )">
    <path d="M 9.32735426008958 14.25  L 9.95515695067252 14.25  L 11.2556053811659 12.6846590909091  L 9.55156950672654 10.6335227272727  L 8.25112107623318 12.1988636363636  L 8.25112107623318 12.9545454545454  L 9.32735426008958 12.9545454545454  L 9.32735426008958 14.25  Z M 14.8766816143498 4.97940340909088  C 15.0037369207773 4.82646780303031  15.0074738415547 4.67803030303031  14.8878923766815 4.53409090909088  C 14.7683109118086 4.3901515151515  14.6449925261584 4.39464962121212  14.5179372197308 4.54758522727269  L 10.5941704035874 9.27059659090912  C 10.4671150971599 9.42353219696969  10.4633781763828 9.57196969696969  10.5829596412555 9.71590909090912  C 10.7025411061286 9.8598484848485  10.8258594917788 9.85535037878788  10.9529147982064 9.70241477272731  L 14.8766816143498 4.97940340909088  Z M 15.5605381165919 12.1583806818182  C 15.710014947683 12.2303503787879  15.7847533632287 12.3607954545454  15.7847533632287 12.5497159090909  L 15.7847533632287 15.1136363636364  C 15.7847533632287 16.1841856060606  15.4689835575487 17.0995501893939  14.8374439461884 17.8597301136364  C 14.2059043348281 18.6199100378788  13.4454409566515 19  12.5560538116592 19  L 3.22869955156966 19  C 2.33931240657694 19  1.57884902840078 18.6199100378788  0.947309417040515 17.8597301136364  C 0.315769805680247 17.0995501893939  0 16.1841856060606  0 15.1136363636364  L 0 3.88636363636363  C 0 2.81581439393938  0.315769805680247 1.90044981060606  0.947309417040515 1.14026988636363  C 1.57884902840078 0.38008996212119  2.33931240657694 0  3.22869955156966 0  L 12.5560538116592 0  C 13.0269058295962 0  13.4641255605382 0.112452651515127  13.8677130044844 0.337357954545439  C 13.9798206278028 0.400331439393938  14.0470852017936 0.503787878787875  14.0695067264571 0.647727272727309  C 14.0919282511211 0.800662878787875  14.0582959641254 0.931107954545439  13.9686098654709 1.0390625  L 13.4192825112111 1.70028409090912  C 13.3146487294471 1.82623106060606  13.1950672645739 1.86221590909088  13.0605381165919 1.80823863636363  C 12.8886397608371 1.75426136363637  12.7204783258594 1.72727272727269  12.5560538116592 1.72727272727269  L 3.22869955156966 1.72727272727269  C 2.73542600896872 1.72727272727269  2.31315396113609 1.93868371212119  1.96188340807157 2.36150568181819  C 1.6106128550075 2.78432765151513  1.43497757847535 3.29261363636363  1.43497757847535 3.88636363636363  L 1.43497757847535 15.1136363636364  C 1.43497757847535 15.7073863636364  1.6106128550075 16.2156723484849  1.96188340807157 16.6384943181818  C 2.31315396113609 17.0613162878788  2.73542600896872 17.2727272727273  3.22869955156966 17.2727272727273  L 12.5560538116592 17.2727272727273  C 13.0493273542602 17.2727272727273  13.4715994020926 17.0613162878788  13.8228699551569 16.6384943181818  C 14.1741405082212 16.2156723484849  14.3497757847533 15.7073863636364  14.3497757847533 15.1136363636364  L 14.3497757847533 13.4133522727273  C 14.3497757847533 13.2964015151515  14.3834080717488 13.1974431818182  14.4506726457398 13.1164772727273  L 15.1681614349775 12.2528409090909  C 15.280269058296 12.1178977272727  15.4110612855006 12.0864109848485  15.5605381165919 12.1583806818182  Z M 7.174887892377 11.6590909090909  L 14.7085201793723 2.59090909090912  L 17.9372197309417 6.47727272727269  L 10.4035874439462 15.5454545454546  L 7.174887892377 15.5454545454546  L 7.174887892377 11.6590909090909  Z M 20 3.45454545454544  C 20 3.81439393939394  19.8953662182359 4.12026515151513  19.6860986547088 4.37215909090912  L 18.6547085201792 5.61363636363637  L 15.4260089686099 1.72727272727269  L 16.4573991031389 0.485795454545439  C 16.6666666666665 0.233901515151501  16.9207772795216 0.107954545454561  17.219730941704 0.107954545454561  C 17.5186846038864 0.107954545454561  17.7727952167413 0.233901515151501  17.9820627802692 0.485795454545439  L 19.6860986547088 2.53693181818181  C 19.8953662182359 2.78882575757575  20 3.094696969697  20 3.45454545454544  Z " fill-rule="nonzero" fill="#cccccc" stroke="none" transform="matrix(1 0 0 1 1760 307 )" />
  </g>
</svg>