<?xml version="1.0" encoding="utf-8"?>
<svg version="1.1" xmlns:xlink="http://www.w3.org/1999/xlink" width="16px" height="19px" xmlns="http://www.w3.org/2000/svg">
  <g transform="matrix(1 0 0 1 -1719 -307 )">
    <path d="M 12.0416666666667 0.720982142857156  L 15.2916666666667 4.02901785714283  C 15.4861111111113 4.22693452380951  15.6527777777776 4.49553571428576  15.7916666666667 4.83482142857139  C 15.9305555555554 5.17410714285721  16 5.4851190476191  16 5.76785714285719  L 16 17.9821428571428  C 16 18.2648809523809  15.9027777777776 18.5052083333333  15.708333333333 18.703125  C 15.5138888888889 18.9010416666667  15.2777777777776 19  15.0000000000002 19  L 0.999999999999773 19  C 0.722222222222399 19  0.486111111111086 18.9010416666667  0.29166666666697 18.703125  C 0.0972222222223991 18.5052083333333  0 18.2648809523809  0 17.9821428571428  L 0 1.01785714285721  C 0 0.735119047619058  0.0972222222223991 0.494791666666673  0.29166666666697 0.296874999999992  C 0.486111111111086 0.0989583333333109  0.722222222222399 0  0.999999999999773 0  L 10.333333333333 0  C 10.6111111111111 0  10.916666666667 0.0706845238095078  11.25 0.212053571428582  C 11.5833333333333 0.353422619047598  11.8472222222222 0.523065476190476  12.0416666666667 0.720982142857156  Z M 11.09375 1.67522321428575  C 11.0104166666667 1.59040178571422  10.8680555555557 1.51264880952382  10.6666666666667 1.44196428571425  L 10.6666666666667 5.42857142857144  L 14.5833333333333 5.42857142857144  C 14.5138888888887 5.2235863095238  14.4375 5.07868303571426  14.3541666666667 4.99386160714285  L 11.09375 1.67522321428575  Z M 1.33333333333326 17.6428571428572  L 14.6666666666667 17.6428571428572  L 14.6666666666667 6.78571428571422  L 10.333333333333 6.78571428571422  C 10.0555555555557 6.78571428571422  9.81944444444434 6.68675595238091  9.625 6.48883928571423  C 9.43055555555566 6.29092261904761  9.33333333333326 6.05059523809528  9.33333333333326 5.76785714285719  L 9.33333333333326 1.35714285714284  L 1.33333333333326 1.35714285714284  L 1.33333333333326 17.6428571428572  Z M 4 9.16071428571422  L 4 8.48214285714282  C 4 8.38318452380951  4.03124999999977 8.30189732142858  4.09375 8.23828125000002  C 4.15625 8.1746651785714  4.23611111111109 8.14285714285719  4.33333333333326 8.14285714285719  L 11.6666666666667 8.14285714285719  C 11.7638888888889 8.14285714285719  11.84375 8.1746651785714  11.90625 8.23828125000002  C 11.9687500000002 8.30189732142858  12 8.38318452380951  12 8.48214285714282  L 12 9.16071428571422  C 12 9.25967261904758  11.9687500000002 9.34095982142858  11.90625 9.40457589285719  C 11.84375 9.46819196428575  11.7638888888889 9.49999999999997  11.6666666666667 9.49999999999997  L 4.33333333333326 9.49999999999997  C 4.23611111111109 9.49999999999997  4.15625 9.46819196428575  4.09375 9.40457589285719  C 4.03124999999977 9.34095982142858  4 9.25967261904758  4 9.16071428571422  Z M 4.33333333333326 10.8571428571428  L 11.6666666666667 10.8571428571428  C 11.7638888888889 10.8571428571428  11.84375 10.8889508928572  11.90625 10.9525669642858  C 11.9687500000002 11.0161830357142  12 11.0974702380953  12 11.1964285714286  L 12 11.875  C 12 11.9739583333333  11.9687500000002 12.0552455357142  11.90625 12.1188616071428  C 11.84375 12.1824776785714  11.7638888888889 12.2142857142858  11.6666666666667 12.2142857142858  L 4.33333333333326 12.2142857142858  C 4.23611111111109 12.2142857142858  4.15625 12.1824776785714  4.09375 12.1188616071428  C 4.03124999999977 12.0552455357142  4 11.9739583333333  4 11.875  L 4 11.1964285714286  C 4 11.0974702380953  4.03124999999977 11.0161830357142  4.09375 10.9525669642858  C 4.15625 10.8889508928572  4.23611111111109 10.8571428571428  4.33333333333326 10.8571428571428  Z M 4.33333333333326 13.5714285714286  L 11.6666666666667 13.5714285714286  C 11.7638888888889 13.5714285714286  11.84375 13.6032366071428  11.90625 13.6668526785714  C 11.9687500000002 13.73046875  12 13.8117559523809  12 13.9107142857142  L 12 14.5892857142858  C 12 14.6882440476191  11.9687500000002 14.76953125  11.90625 14.8331473214286  C 11.84375 14.8967633928572  11.7638888888889 14.9285714285714  11.6666666666667 14.9285714285714  L 4.33333333333326 14.9285714285714  C 4.23611111111109 14.9285714285714  4.15625 14.8967633928572  4.09375 14.8331473214286  C 4.03124999999977 14.76953125  4 14.6882440476191  4 14.5892857142858  L 4 13.9107142857142  C 4 13.8117559523809  4.03124999999977 13.73046875  4.09375 13.6668526785714  C 4.15625 13.6032366071428  4.23611111111109 13.5714285714286  4.33333333333326 13.5714285714286  Z " fill-rule="nonzero" fill="#cccccc" stroke="none" transform="matrix(1 0 0 1 1719 307 )" />
  </g>
</svg>