<?xml version="1.0" encoding="utf-8"?>
<svg version="1.1" xmlns:xlink="http://www.w3.org/1999/xlink" width="66px" height="22px" xmlns="http://www.w3.org/2000/svg">
  <defs>
    <filter x="1694px" y="322px" width="66px" height="22px" filterUnits="userSpaceOnUse" id="filter125">
      <feOffset dx="2" dy="2" in="SourceAlpha" result="shadowOffsetInner" />
      <feGaussianBlur stdDeviation="1" in="shadowOffsetInner" result="shadowGaussian" />
      <feComposite in2="shadowGaussian" operator="atop" in="SourceAlpha" result="shadowComposite" />
      <feColorMatrix type="matrix" values="0 0 0 0 0  0 0 0 0 0  0 0 0 0 0  0 0 0 0.349019607843137 0  " in="shadowComposite" />
    </filter>
    <g id="widget126">
      <path d="M 1694 330.897058823529  C 1694 330.897058823529  1694 327  1694 327  C 1694 324.238576250846  1696.23857625085 322  1699 322  C 1699 322  1751 322  1751 322  C 1753.76142374915 322  1756 324.238576250846  1756 327  C 1756 327  1756 330.897058823529  1756 330.897058823529  C 1756 333.658482572683  1753.76142374915 335.897058823529  1751 335.897058823529  C 1751 335.897058823529  1734.56584158416 335.897058823529  1734.56584158416 335.897058823529  C 1734.56584158416 335.897058823529  1726.54356435644 340  1726.54356435644 340  C 1726.54356435644 340  1717.56584158416 335.897058823529  1717.56584158416 335.897058823529  C 1717.56584158416 335.897058823529  1699 335.897058823529  1699 335.897058823529  C 1696.23857625085 335.897058823529  1694 333.658482572683  1694 330.897058823529  Z " fill-rule="nonzero" fill="#ffffff" stroke="none" />
    </g>
  </defs>
  <g transform="matrix(1 0 0 1 -1694 -322 )">
    <use xlink:href="#widget126" filter="url(#filter125)" />
    <use xlink:href="#widget126" />
  </g>
</svg>