<?xml version="1.0" encoding="utf-8"?>
<svg version="1.1" xmlns:xlink="http://www.w3.org/1999/xlink" width="64px" height="64px" xmlns="http://www.w3.org/2000/svg">
  <g transform="matrix(1 0 0 1 -928 -315 )">
    <path d="M 31.9998909801136 0.273437855113627  C 14.4770078835227 0.273437855113627  0.273401562500112 14.4780616477273  0.273401562500112 31.9999272727273  C 0.273401562500112 49.5218655539773  14.4770078835227 63.7264894176136  31.9998909801136 63.7264894176136  C 49.5218292613636 63.7264894176136  63.7265257812501 49.521865625  63.7265257812501 31.9999272727273  C 63.7265257812501 14.47806171875  49.5218292613636 0.273437855113627  31.9998909801136 0.273437855113627  Z M 49.3514720880682 24.4633644176136  L 28.6692764204545 45.1449786221591  C 28.1859677556818 45.6293048295454  27.4010453835226 45.6293048295454  26.9176639914772 45.1449786221591  L 14.6484552556817 32.8757698863636  C 14.165146590909 32.3924612215909  14.165146590909 31.6075388494318  14.6484552556817 31.1237213778409  L 18.5048224431819 27.2678629261364  C 18.9881311079546 26.7840455255682  19.7730534801137 26.7840455255682  20.2564348721592 27.2678629261364  L 27.7935792613637 34.8039171164772  L 43.7434924715908 18.8549487215909  C 44.2268011363635 18.3711313210227  45.0117961647727 18.3711313210227  45.4951775568181 18.8549487215909  L 49.3515447443183 22.7108071732955  C 49.8357982244318 23.1946245738636  49.8357982244318 23.9795469460227  49.3514720880682 24.4633644176136  Z " fill-rule="nonzero" fill="#069afe" stroke="none" transform="matrix(1 0 0 1 928 315 )" />
  </g>
</svg>