<?xml version="1.0" encoding="utf-8"?>
<svg version="1.1" xmlns:xlink="http://www.w3.org/1999/xlink" width="20px" height="16px" xmlns="http://www.w3.org/2000/svg">
  <g transform="matrix(1 0 0 1 -78 0 )">
    <path d="M 9.32735426008969 12  L 9.95515695067263 12  L 11.2556053811659 10.6818181818182  L 9.55156950672642 8.95454545454544  L 8.25112107623318 10.2727272727273  L 8.25112107623318 10.9090909090909  L 9.32735426008969 10.9090909090909  L 9.32735426008969 12  Z M 14.8766816143498 4.19318181818181  C 15.0037369207773 4.06439393939394  15.0074738415545 3.93939393939394  14.8878923766816 3.81818181818181  C 14.7683109118086 3.69696969696969  14.6449925261584 3.70075757575759  14.5179372197309 3.82954545454544  L 10.5941704035874 7.80681818181819  C 10.46711509716 7.93560606060606  10.4633781763827 8.06060606060606  10.5829596412556 8.18181818181819  C 10.7025411061285 8.30303030303031  10.8258594917787 8.29924242424241  10.9529147982063 8.17045454545456  L 14.8766816143498 4.19318181818181  Z M 15.5605381165919 10.2386363636364  C 15.7100149476831 10.2992424242424  15.7847533632287 10.4090909090909  15.7847533632287 10.5681818181818  L 15.7847533632287 12.7272727272727  C 15.7847533632287 13.6287878787879  15.4689835575485 14.3996212121212  14.8374439461884 15.0397727272727  C 14.2059043348281 15.6799242424242  13.4454409566517 16  12.5560538116591 16  L 3.22869955156955 16  C 2.33931240657705 16  1.57884902840067 15.6799242424242  0.947309417040401 15.0397727272727  C 0.315769805680134 14.3996212121212  0 13.6287878787879  0 12.7272727272727  L 0 3.27272727272728  C 0 2.37121212121212  0.315769805680134 1.60037878787878  0.947309417040401 0.96022727272728  C 1.57884902840067 0.320075757575751  2.33931240657705 0  3.22869955156955 0  L 12.5560538116591 0  C 13.0269058295964 0  13.4641255605382 0.0946969696969688  13.8677130044844 0.284090909090907  C 13.9798206278027 0.337121212121218  14.0470852017937 0.424242424242408  14.0695067264575 0.545454545454561  C 14.0919282511211 0.674242424242408  14.0582959641256 0.784090909090907  13.9686098654709 0.875  L 13.4192825112108 1.43181818181819  C 13.314648729447 1.53787878787878  13.1950672645739 1.56818181818181  13.0605381165919 1.52272727272728  C 12.888639760837 1.47727272727272  12.7204783258595 1.45454545454544  12.5560538116591 1.45454545454544  L 3.22869955156955 1.45454545454544  C 2.7354260089686 1.45454545454544  2.31315396113609 1.63257575757575  1.96188340807169 1.98863636363637  C 1.6106128550075 2.34469696969697  1.43497757847535 2.77272727272728  1.43497757847535 3.27272727272728  L 1.43497757847535 12.7272727272727  C 1.43497757847535 13.2272727272727  1.6106128550075 13.655303030303  1.96188340807169 14.0113636363636  C 2.31315396113609 14.3674242424242  2.7354260089686 14.5454545454546  3.22869955156955 14.5454545454546  L 12.5560538116591 14.5454545454546  C 13.0493273542601 14.5454545454546  13.4715994020927 14.3674242424242  13.8228699551569 14.0113636363636  C 14.1741405082213 13.655303030303  14.3497757847533 13.2272727272727  14.3497757847533 12.7272727272727  L 14.3497757847533 11.2954545454546  C 14.3497757847533 11.1969696969697  14.3834080717489 11.1136363636364  14.4506726457399 11.0454545454546  L 15.1681614349775 10.3181818181818  C 15.280269058296 10.2045454545454  15.4110612855008 10.1780303030303  15.5605381165919 10.2386363636364  Z M 7.17488789237666 9.81818181818181  L 14.7085201793723 2.18181818181819  L 17.9372197309417 5.45454545454544  L 10.4035874439462 13.0909090909091  L 7.17488789237666 13.0909090909091  L 7.17488789237666 9.81818181818181  Z M 20 2.90909090909091  C 20 3.21212121212122  19.8953662182362 3.46969696969697  19.6860986547085 3.68181818181819  L 18.6547085201794 4.72727272727272  L 15.4260089686098 1.45454545454544  L 16.457399103139 0.409090909090907  C 16.6666666666666 0.196969696969688  16.9207772795218 0.0909090909090935  17.219730941704 0.0909090909090935  C 17.5186846038864 0.0909090909090935  17.7727952167413 0.196969696969688  17.9820627802691 0.409090909090907  L 19.6860986547085 2.13636363636363  C 19.8953662182362 2.34848484848484  20 2.60606060606062  20 2.90909090909091  Z " fill-rule="nonzero" fill="#529efd" stroke="none" transform="matrix(1 0 0 1 78 0 )" />
  </g>
</svg>