<?xml version="1.0" encoding="utf-8"?>
<svg version="1.1" xmlns:xlink="http://www.w3.org/1999/xlink" width="15px" height="16px" xmlns="http://www.w3.org/2000/svg">
  <g transform="matrix(1 0 0 1 -240 0 )">
    <path d="M 5.35866477272725 13.2395833333333  C 5.42258522727275 13.1770833333333  5.4545454545455 13.0972222222222  5.4545454545455 13  L 5.4545454545455 5.66666666666669  C 5.4545454545455 5.56944444444446  5.42258522727275 5.48958333333331  5.35866477272725 5.42708333333331  C 5.29474431818176 5.36458333333331  5.21306818181824 5.33333333333331  5.11363636363637 5.33333333333331  L 4.43181818181824 5.33333333333331  C 4.33238636363637 5.33333333333331  4.25071022727275 5.36458333333331  4.18678977272725 5.42708333333331  C 4.12286931818176 5.48958333333331  4.09090909090912 5.56944444444446  4.09090909090912 5.66666666666669  L 4.09090909090912 13  C 4.09090909090912 13.0972222222222  4.12286931818176 13.1770833333333  4.18678977272725 13.2395833333333  C 4.25071022727275 13.3020833333333  4.33238636363637 13.3333333333333  4.43181818181824 13.3333333333333  L 5.11363636363637 13.3333333333333  C 5.21306818181824 13.3333333333333  5.29474431818176 13.3020833333333  5.35866477272725 13.2395833333333  Z M 8.0859375 13.2395833333333  C 8.1498579545455 13.1770833333333  8.18181818181824 13.0972222222222  8.18181818181824 13  L 8.18181818181824 5.66666666666669  C 8.18181818181824 5.56944444444446  8.1498579545455 5.48958333333331  8.0859375 5.42708333333331  C 8.0220170454545 5.36458333333331  7.94034090909099 5.33333333333331  7.84090909090912 5.33333333333331  L 7.15909090909088 5.33333333333331  C 7.05965909090901 5.33333333333331  6.9779829545455 5.36458333333331  6.9140625 5.42708333333331  C 6.8501420454545 5.48958333333331  6.81818181818176 5.56944444444446  6.81818181818176 5.66666666666669  L 6.81818181818176 13  C 6.81818181818176 13.0972222222222  6.8501420454545 13.1770833333333  6.9140625 13.2395833333333  C 6.9779829545455 13.3020833333333  7.05965909090901 13.3333333333333  7.15909090909088 13.3333333333333  L 7.84090909090912 13.3333333333333  C 7.94034090909099 13.3333333333333  8.0220170454545 13.3020833333333  8.0859375 13.2395833333333  Z M 10.8132102272727 13.2395833333333  C 10.8771306818182 13.1770833333333  10.9090909090909 13.0972222222222  10.9090909090909 13  L 10.9090909090909 5.66666666666669  C 10.9090909090909 5.56944444444446  10.8771306818182 5.48958333333331  10.8132102272727 5.42708333333331  C 10.7492897727273 5.36458333333331  10.6676136363636 5.33333333333331  10.5681818181818 5.33333333333331  L 9.88636363636363 5.33333333333331  C 9.78693181818176 5.33333333333331  9.70525568181824 5.36458333333331  9.64133522727275 5.42708333333331  C 9.57741477272725 5.48958333333331  9.5454545454545 5.56944444444446  9.5454545454545 5.66666666666669  L 9.5454545454545 13  C 9.5454545454545 13.0972222222222  9.57741477272725 13.1770833333333  9.64133522727275 13.2395833333333  C 9.70525568181824 13.3020833333333  9.78693181818176 13.3333333333333  9.88636363636363 13.3333333333333  L 10.5681818181818 13.3333333333333  C 10.6676136363636 13.3333333333333  10.7492897727273 13.3020833333333  10.8132102272727 13.2395833333333  Z M 5.63565340909088 1.44791666666669  L 5.11363636363637 2.66666666666669  L 9.88636363636363 2.66666666666669  L 9.375 1.44791666666669  C 9.32528409090901 1.38541666666669  9.26491477272725 1.34722222222223  9.1938920454545 1.33333333333331  L 5.81676136363637 1.33333333333331  C 5.74573863636363 1.34722222222223  5.68536931818176 1.38541666666669  5.63565340909088 1.44791666666669  Z M 14.9041193181818 2.76041666666669  C 14.9680397727273 2.82291666666669  15 2.90277777777777  15 3  L 15 3.66666666666669  C 15 3.76388888888891  14.9680397727273 3.84375  14.9041193181818 3.90625  C 14.8401988636364 3.96875  14.7585227272727 4  14.6590909090909 4  L 13.6363636363636 4  L 13.6363636363636 13.875  C 13.6363636363636 14.4513888888889  13.4694602272727 14.9496527777778  13.1356534090909 15.3697916666667  C 12.801846590909 15.7899305555555  12.4005681818182 16  11.9318181818182 16  L 3.06818181818176 16  C 2.59943181818176 16  2.19815340909099 15.796875  1.86434659090912 15.390625  C 1.53053977272725 14.984375  1.36363636363637 14.4930555555555  1.36363636363637 13.9166666666667  L 1.36363636363637 4  L 0.340909090909122 4  C 0.241477272727252 4  0.159801136363626 3.96875  0.0958806818182438 3.90625  C 0.0319602272727479 3.84375  0 3.76388888888891  0 3.66666666666669  L 0 3  C 0 2.90277777777777  0.0319602272727479 2.82291666666669  0.0958806818182438 2.76041666666669  C 0.159801136363626 2.69791666666669  0.241477272727252 2.66666666666669  0.340909090909122 2.66666666666669  L 3.6328125 2.66666666666669  L 4.37855113636363 0.927083333333314  C 4.48508522727275 0.670138888888914  4.67684659090912 0.451388888888914  4.95383522727275 0.270833333333314  C 5.23082386363637 0.0902777777777715  5.51136363636363 0  5.7954545454545 0  L 9.2045454545455 0  C 9.48863636363637 0  9.76917613636363 0.0902777777777715  10.0461647727273 0.270833333333314  C 10.3231534090909 0.451388888888914  10.5149147727273 0.670138888888914  10.6214488636364 0.927083333333314  L 11.3671875 2.66666666666669  L 14.6590909090909 2.66666666666669  C 14.7585227272727 2.66666666666669  14.8401988636364 2.69791666666669  14.9041193181818 2.76041666666669  Z " fill-rule="nonzero" fill="#ff7373" stroke="none" transform="matrix(1 0 0 1 240 0 )" />
  </g>
</svg>