<?xml version="1.0" encoding="utf-8"?>
<svg version="1.1" xmlns:xlink="http://www.w3.org/1999/xlink" width="16px" height="16px" xmlns="http://www.w3.org/2000/svg">
  <g transform="matrix(1 0 0 1 -780 -12 )">
    <path d="M 14.8645833333334 5.80208333333334  L 13.3645833333334 4.30208333333334  L 9.66666666666663 8  L 13.3645833333334 11.6979166666667  L 14.8645833333334 10.1979166666667  C 15.0659722222222 9.98263888888889  15.3090277777778 9.93402777777778  15.59375 10.0520833333333  C 15.8645833333334 10.1701388888889  16 10.375  16 10.6666666666667  L 16 15.3333333333333  C 16 15.5138888888889  15.9340277777778 15.6701388888889  15.8020833333334 15.8020833333333  C 15.6701388888889 15.9340277777778  15.5138888888889 16  15.3333333333334 16  L 10.6666666666666 16  C 10.375 16  10.1701388888889 15.8611111111111  10.0520833333334 15.5833333333333  C 9.93402777777783 15.3125  9.98263888888891 15.0729166666667  10.1979166666666 14.8645833333333  L 11.6979166666666 13.3645833333333  L 8 9.66666666666667  L 4.30208333333337 13.3645833333333  L 5.80208333333337 14.8645833333333  C 6.01736111111109 15.0729166666667  6.06597222222217 15.3125  5.94791666666663 15.5833333333333  C 5.82986111111109 15.8611111111111  5.625 16  5.33333333333337 16  L 0.666666666666629 16  C 0.486111111111086 16  0.329861111111086 15.9340277777778  0.197916666666629 15.8020833333333  C 0.0659722222221717 15.6701388888889  0 15.5138888888889  0 15.3333333333333  L 0 10.6666666666667  C 0 10.375  0.138888888888914 10.1701388888889  0.416666666666629 10.0520833333333  C 0.6875 9.93402777777778  0.927083333333371 9.98263888888889  1.13541666666663 10.1979166666667  L 2.63541666666663 11.6979166666667  L 6.33333333333337 8  L 2.63541666666663 4.30208333333334  L 1.13541666666663 5.80208333333334  C 1.00347222222217 5.93402777777778  0.847222222222172 6  0.666666666666629 6  C 0.583333333333371 6  0.5 5.98263888888889  0.416666666666629 5.94791666666666  C 0.138888888888914 5.82986111111111  0 5.625  0 5.33333333333334  L 0 0.666666666666668  C 0 0.486111111111107  0.0659722222221717 0.329861111111107  0.197916666666629 0.197916666666668  C 0.329861111111086 0.0659722222222214  0.486111111111086 0  0.666666666666629 0  L 5.33333333333337 0  C 5.625 0  5.82986111111109 0.138888888888889  5.94791666666663 0.416666666666668  C 6.06597222222217 0.6875  6.01736111111109 0.927083333333332  5.80208333333337 1.13541666666667  L 4.30208333333337 2.63541666666666  L 8 6.33333333333334  L 11.6979166666666 2.63541666666666  L 10.1979166666666 1.13541666666667  C 9.98263888888891 0.927083333333332  9.93402777777783 0.6875  10.0520833333334 0.416666666666668  C 10.1701388888889 0.138888888888889  10.375 0  10.6666666666666 0  L 15.3333333333334 0  C 15.5138888888889 0  15.6701388888889 0.0659722222222214  15.8020833333334 0.197916666666668  C 15.9340277777778 0.329861111111107  16 0.486111111111107  16 0.666666666666668  L 16 5.33333333333334  C 16 5.625  15.8645833333334 5.82986111111111  15.59375 5.94791666666666  C 15.5034722222222 5.98263888888889  15.4166666666666 6  15.3333333333334 6  C 15.1527777777778 6  14.9965277777778 5.93402777777778  14.8645833333334 5.80208333333334  Z " fill-rule="nonzero" fill="#cccccc" stroke="none" transform="matrix(1 0 0 1 780 12 )" />
  </g>
</svg>