<?xml version="1.0" encoding="utf-8"?>
<svg version="1.1" xmlns:xlink="http://www.w3.org/1999/xlink" width="60px" height="54px" xmlns="http://www.w3.org/2000/svg">
  <g transform="matrix(1 0 0 1 -130 -46 )">
    <path d="M 58.9973810369318 45.2267346833882  C 59.9916287937967 46.9489214101445  60.0210505484143 49.0950549836009  59.0744185014204 50.8461374383223  C 58.1249401159251 52.5953527753665  56.346351479342 53.6775435118717  54.4178799715909 53  L 5.583984375 53  C 2.6302273628113 53.6786496419006  0.23613150605533 51.1831167552647  0.23613150605533 48.1049909277268  C 0.23613150605533 47.0905490971051  0.501767836249371 46.0953375923196  1.00441672585228 45.2265959087171  L 25.4210981889204 3.01654502467105  C 26.3886696316465 1.34348734914682  28.1262806283208 0.320593051925012  30.0007657137784 0.320593051925012  C 31.8752507992361 0.320593051925012  33.6128617959103 1.34348734914682  34.5804332386364 3.01654502467105  L 58.9973810369318 45.2267346833882  Z M 55.6786443536932 47.3127955386513  L 31.2616965553977 5.10260587993422  C 30.9953608769578 4.64201742760614  30.5170219824265 4.36041090397555  30.0009987571023 4.36041090397555  C 29.484975531778 4.36041090397555  29.0066366372468 4.64201742760614  28.7403009588068 5.10260587993422  L 4.32328657670456 47.3127955386513  C 4.18493263157757 47.5519371629489  4.11181689203596 47.825887017565  4.11181689203596 48.1051295796374  C 4.11181689203596 48.9524865830112  4.77086404822367 49.6394696707489  5.583984375 49  L 54.4178799715909 49  C 55.2309928463875 49.6395670234191  55.8900834886639 48.9526175333208  55.8900834886639 48.1052683165455  C 55.8900834886639 47.8259675875949  55.8169306989322 47.5519638839852  55.6785111860796 47.3127955386513  Z M 32.7880637428977 41.6788214432566  C 32.7878639914773 43.2158203125  31.5293634588068 44.5649182771382  30.0553311434659 44.5649182771382  C 28.5257857853918 44.5649182771382  27.2858442826704 43.2727687111443  27.2858442826704 41.6788214432566  C 27.2858442826704 40.0848741753688  28.5257857853918 38.792724609375  30.0553311434659 38.792724609375  C 31.5294300426137 38.792724609375  32.7880637428977 40.1045615748355  32.7880637428977 41.6788214432566  Z M 30.0193093039773 36.2066586143092  C 28.8687411221591 36.2066586143092  27.8978160511364 35.7194207442434  27.8976828835227 34.5575991981908  C 27.8976828835227 30.0973812705592  27.3943758877841 23.6882118626645  27.3943758877841 19.228132709704  C 27.3943758877841 17.7662803248355  28.5449440696023 16.9417506167763  30.0191761363636 16.9417506167763  C 31.4214976917614 16.9417506167763  32.6080211292613 17.7664190995066  32.6080211292613 19.228132709704  C 32.6080211292613 23.6883506373355  32.1047141335227 30.0974506578947  32.1047141335227 34.5575991981908  C 32.1045143821023 35.7194207442434  30.8819691051136 36.2066586143092  30.0191095525568 36.2066586143092  Z " fill-rule="nonzero" fill="#f5422a" stroke="none" transform="matrix(1 0 0 1 130 46 )" />
  </g>
</svg>