<?xml version="1.0" encoding="utf-8"?>
<svg version="1.1" xmlns:xlink="http://www.w3.org/1999/xlink" width="18px" height="16px" xmlns="http://www.w3.org/2000/svg">
  <g transform="matrix(1 0 0 1 -816 -12 )">
    <path d="M 13.640625 14.46875  C 13.7776442307693 14.3368055555556  13.8461538461538 14.1805555555556  13.8461538461538 14  C 13.8461538461538 13.8194444444444  13.7776442307693 13.6631944444444  13.640625 13.53125  C 13.5036057692307 13.3993055555556  13.3413461538461 13.3333333333333  13.1538461538462 13.3333333333333  C 12.9663461538462 13.3333333333333  12.8040865384617 13.3993055555556  12.6670673076924 13.53125  C 12.5300480769231 13.6631944444444  12.4615384615386 13.8194444444444  12.4615384615386 14  C 12.4615384615386 14.1805555555556  12.5300480769231 14.3368055555556  12.6670673076924 14.46875  C 12.8040865384617 14.6006944444444  12.9663461538462 14.6666666666667  13.1538461538462 14.6666666666667  C 13.3413461538461 14.6666666666667  13.5036057692307 14.6006944444444  13.640625 14.46875  Z M 16.4098557692308 14.46875  C 16.546875 14.3368055555556  16.6153846153846 14.1805555555556  16.6153846153846 14  C 16.6153846153846 13.8194444444444  16.546875 13.6631944444444  16.4098557692308 13.53125  C 16.2728365384615 13.3993055555556  16.1105769230769 13.3333333333333  15.9230769230769 13.3333333333333  C 15.7355769230769 13.3333333333333  15.5733173076923 13.3993055555556  15.4362980769231 13.53125  C 15.2992788461538 13.6631944444444  15.2307692307692 13.8194444444444  15.2307692307692 14  C 15.2307692307692 14.1805555555556  15.2992788461538 14.3368055555556  15.4362980769231 14.46875  C 15.5733173076923 14.6006944444444  15.7355769230769 14.6666666666667  15.9230769230769 14.6666666666667  C 16.1105769230769 14.6666666666667  16.2728365384615 14.6006944444444  16.4098557692308 14.46875  Z M 17.6971153846154 10.9583333333333  C 17.8990384615385 11.1527777777778  18 11.3888888888889  18 11.6666666666667  L 18 15  C 18 15.2777777777778  17.8990384615385 15.5138888888889  17.6971153846154 15.7083333333333  C 17.4951923076924 15.9027777777778  17.25 16  16.9615384615386 16  L 1.03846153846143 16  C 0.75 16  0.504807692307622 15.9027777777778  0.302884615384642 15.7083333333333  C 0.100961538461547 15.5138888888889  0 15.2777777777778  0 15  L 0 11.6666666666667  C 0 11.3888888888889  0.100961538461547 11.1527777777778  0.302884615384642 10.9583333333333  C 0.504807692307622 10.7638888888889  0.75 10.6666666666667  1.03846153846143 10.6666666666667  L 6.06850961538464 10.6666666666667  L 7.52884615384619 12.0833333333333  C 7.94711538461536 12.4722222222222  8.4375 12.6666666666667  9 12.6666666666667  C 9.5625 12.6666666666667  10.0528846153846 12.4722222222222  10.4711538461538 12.0833333333333  L 11.9423076923076 10.6666666666667  L 16.9615384615386 10.6666666666667  C 17.25 10.6666666666667  17.4951923076924 10.7638888888889  17.6971153846154 10.9583333333333  Z M 13.8461538461538 5.33333333333333  C 14.1490384615386 5.33333333333333  14.3617788461539 5.46875  14.484375 5.73958333333333  C 14.6069711538461 6.02430555555556  14.5564903846154 6.26736111111111  14.3329326923076 6.46875  L 9.48677884615381 11.1354166666667  C 9.35697115384619 11.2673611111111  9.19471153846143 11.3333333333333  9 11.3333333333333  C 8.80528846153857 11.3333333333333  8.64302884615381 11.2673611111111  8.51322115384619 11.1354166666667  L 3.66706730769238 6.46875  C 3.44350961538464 6.26736111111111  3.39302884615392 6.02430555555556  3.515625 5.73958333333333  C 3.63822115384608 5.46875  3.85096153846143 5.33333333333333  4.15384615384619 5.33333333333333  L 6.92307692307691 5.33333333333333  L 6.92307692307691 0.666666666666667  C 6.92307692307691 0.48611111111111  6.99158653846155 0.32986111111111  7.12860576923083 0.197916666666665  C 7.265625 0.0659722222222245  7.42788461538453 0  7.61538461538464 0  L 10.3846153846154 0  C 10.5721153846155 0  10.734375 0.0659722222222245  10.8713942307692 0.197916666666665  C 11.0084134615385 0.32986111111111  11.0769230769231 0.48611111111111  11.0769230769231 0.666666666666667  L 11.0769230769231 5.33333333333333  L 13.8461538461538 5.33333333333333  Z " fill-rule="nonzero" fill="#cccccc" stroke="none" transform="matrix(1 0 0 1 816 12 )" />
  </g>
</svg>