<?xml version="1.0" encoding="utf-8"?>
<svg version="1.1" xmlns:xlink="http://www.w3.org/1999/xlink" width="10px" height="8px" xmlns="http://www.w3.org/2000/svg">
  <g transform="matrix(1 0 0 1 -3 -4 )">
    <path d="M 9.88678424820137 0.795013112797648  C 10.0447984377847 0.605722789534241  10.0360819491744 0.306863360728414  9.8689489793021 0.127928404533748  C 9.70181600942965 -0.0500674510066403  9.43822062017273 -0.0415648630740577  9.28148037372762 0.148715316660798  L 3.73681377627008 6.85270972508312  L 0.707970017333196 3.46363111760218  C 0.544167182715228 3.28043218586424  0.280974098129718 3.28233575032675  0.119652107671413 3.46835195451831  C -0.0416698827867776 3.65391129733703  -0.0395913303057114 3.95325296542427  0.124233851684608 4.13596965788079  L 3.45659000614273 7.86403481533193  C 3.45784160190874 7.865456140513  3.45949550234616 7.86591300188587  3.46074709811217 7.86733432706697  C 3.46199869387817 7.86875565224807  3.46240099854958 7.87063383880201  3.46365259431559 7.87205516398308  C 3.4898467418983 7.90038018547986  3.52144957721646 7.91644626069078  3.5518008167686 7.93532960835529  C 3.56677528420892 7.94525352146897  3.57964886478862 7.9598728788356  3.59545027595141 7.96695414158711  C 3.64450843586235 7.98868013961379  3.69647207898402 8  3.74803343042709 8  C 3.80250027807347 8  3.85696711272726 7.98771567580556  3.90767917307562 7.96317239057063  C 3.924732192997 7.95515204191946  3.93803041262765 7.93862912009033  3.95383183678314 7.92822296769521  C 3.98501002005764 7.90743605556818  4.01743981209074 7.88997403308477  4.04405861171711 7.85928860050723  C 4.04531020748311 7.85786727532613  4.04571251215452 7.85550684949078  4.04696410792053 7.85408552430965  C 4.04779105164289 7.85266419912858  4.04946729945254 7.85220733775571  4.05069654784631 7.85078601257464  L 9.88678424820137 0.795013112797648  Z " fill-rule="nonzero" fill="#ffffff" stroke="none" transform="matrix(1 0 0 1 3 4 )" />
  </g>
</svg>